<svg width="33" height="33" viewBox="0 0 33 33" fill="none" xmlns="http://www.w3.org/2000/svg">
<g clip-path="url(#clip0_207_1045)">
<path fill-rule="evenodd" clip-rule="evenodd" d="M29.658 0.763882L29.658 31.4261C31.1525 30.5615 32.158 28.9457 32.158 27.095L32.158 5.09497C32.158 3.24426 31.1525 1.62841 29.658 0.763882ZM27.158 32.095L27.158 0.0949705L24.658 0.0949704L24.658 32.095L27.158 32.095ZM19.658 0.0949702L22.158 0.0949703L22.158 32.095L19.658 32.095L19.658 0.0949702ZM17.158 0.09497L5.15796 0.0949695C2.39654 0.0949694 0.157959 2.33355 0.157959 5.09497L0.157958 27.095C0.157958 29.8564 2.39653 32.095 5.15796 32.095L17.158 32.095L17.158 0.09497Z" fill="#23201F"/>
</g>
<defs>
<clipPath id="clip0_207_1045">
<rect width="32" height="32" fill="white" transform="translate(0.157959 0.0949707)"/>
</clipPath>
</defs>
</svg>
