<svg width="32" height="33" viewBox="0 0 32 33" fill="none" xmlns="http://www.w3.org/2000/svg">
<g clip-path="url(#clip0_205_1121)">
<path fill-rule="evenodd" clip-rule="evenodd" d="M30 0.345581C31.1046 0.345581 32 1.24101 32 2.34558L32 30.3456C32 31.4502 31.1046 32.3456 30 32.3456L29.5 32.3456L29.5 0.345581L30 0.345581ZM27 0.345581L27 32.3456L24.5 32.3456L24.5 0.345581L27 0.345581ZM22 0.345581L19.5 0.345581L19.5 32.3456L22 32.3456L22 0.345581ZM14.5 0.34558L17 0.34558L17 32.3456L14.5 32.3456L14.5 0.34558ZM12 0.34558L2 0.34558C0.89543 0.34558 -3.91405e-08 1.24101 -8.74228e-08 2.34558L-1.31134e-06 30.3456C-1.35962e-06 31.4502 0.895428 32.3456 2 32.3456L12 32.3456L12 0.34558Z" fill="black"/>
</g>
<defs>
<clipPath id="clip0_205_1121">
<rect width="32" height="32" fill="white" transform="translate(0 0.345581)"/>
</clipPath>
</defs>
</svg>
