<svg width="32" height="32" viewBox="0 0 32 32" fill="none" xmlns="http://www.w3.org/2000/svg">
<g clip-path="url(#clip0_225_1129)">
<path fill-rule="evenodd" clip-rule="evenodd" d="M28.5 1.8413L28.5 30.1588C30.5835 29.2041 32 27.1026 32 24.7034L32 7.29675C32 4.89751 30.5835 2.79597 28.5 1.8413ZM26 30.7501L26 1.25006L23.5 0.937559L23.5 31.0626L26 30.7501ZM18.5 0.312559L21 0.625059L21 31.3751L18.5 31.6876L18.5 0.312559ZM16 0.0467522C15.7514 0.0467522 15.5029 0.0621964 15.2558 0.0930849L5.25579 1.34308C2.25322 1.71841 -1.84639e-07 4.27081 -3.16907e-07 7.29675L-1.07777e-06 24.7034C-1.21004e-06 27.7293 2.25322 30.2817 5.25579 30.657L15.2558 31.907C15.5029 31.9379 15.7514 31.9534 16 31.9534L16 0.0467522Z" fill="#23201F"/>
</g>
<defs>
<clipPath id="clip0_225_1129">
<rect width="32" height="32" fill="white"/>
</clipPath>
</defs>
</svg>
