<svg width="25" height="24" viewBox="0 0 25 24" fill="none" xmlns="http://www.w3.org/2000/svg">
<path fill-rule="evenodd" clip-rule="evenodd" d="M4.58 0C2.32668 0 0.5 1.82668 0.5 4.08V24H2.42L2.42 21.96C2.42 20.1706 3.8706 18.72 5.66 18.72L19.34 18.72C21.1294 18.72 22.58 20.1706 22.58 21.96L22.58 24H24.5V4.08C24.5 1.82668 22.6733 0 20.42 0H4.58ZM5.66 1.92C3.8706 1.92 2.42 3.3706 2.42 5.16C2.42 6.9494 3.8706 8.4 5.66 8.4L19.34 8.4C21.1294 8.4 22.58 6.94941 22.58 5.16C22.58 3.3706 21.1294 1.92 19.34 1.92L5.66 1.92ZM5.66 10.32C3.8706 10.32 2.42 11.7706 2.42 13.56C2.42 15.3494 3.8706 16.8 5.66 16.8L19.34 16.8C21.1294 16.8 22.58 15.3494 22.58 13.56C22.58 11.7706 21.1294 10.32 19.34 10.32L5.66 10.32Z" fill="white"/>
<rect x="21.1396" y="6.95996" width="3.6" height="3.6" rx="1.8" transform="rotate(-180 21.1396 6.95996)" fill="#987655"/>
<rect x="21.1396" y="23.7598" width="3.6" height="3.6" rx="1.8" transform="rotate(-180 21.1396 23.7598)" fill="#987655"/>
<rect x="16.1001" y="23.7598" width="3.6" height="3.6" rx="1.8" transform="rotate(-180 16.1001 23.7598)" fill="#987655"/>
<rect x="11.0601" y="23.7598" width="7.2" height="3.6" rx="1.8" transform="rotate(-180 11.0601 23.7598)" fill="#987655"/>
<rect x="16.1001" y="6.95996" width="12.24" height="3.6" rx="1.8" transform="rotate(-180 16.1001 6.95996)" fill="#987655"/>
<rect x="7.45996" y="15.3599" width="3.6" height="3.6" rx="1.8" transform="rotate(-180 7.45996 15.3599)" fill="#987655"/>
<rect x="21.1396" y="15.3599" width="12.24" height="3.6" rx="1.8" transform="rotate(-180 21.1396 15.3599)" fill="#987655"/>
<mask id="path-9-inside-1_31_54" fill="white">
<path d="M21.1396 5.15996C21.1396 6.15407 20.3338 6.95996 19.3396 6.95996V6.95996C18.3455 6.95996 17.5396 6.15407 17.5396 5.15996V5.15996C17.5396 4.16585 18.3455 3.35996 19.3396 3.35996V3.35996C20.3338 3.35996 21.1396 4.16585 21.1396 5.15996V5.15996Z"/>
</mask>
<path d="M21.1396 6.15996C21.1396 7.15407 20.3338 7.95996 19.3396 7.95996C18.3455 7.95996 17.5396 7.15407 17.5396 6.15996L17.5396 5.15996C17.5396 5.60179 18.3455 5.95996 19.3396 5.95996C20.3338 5.95996 21.1396 5.60179 21.1396 5.15996L21.1396 6.15996ZM17.5396 3.35996L21.1396 3.35996L17.5396 3.35996ZM21.1396 3.35996L21.1396 6.95996L21.1396 3.35996ZM17.5396 6.95996L17.5396 3.35996L17.5396 6.95996Z" fill="black" fill-opacity="0.2" mask="url(#path-9-inside-1_31_54)"/>
<mask id="path-11-inside-2_31_54" fill="white">
<path d="M21.1396 21.9598C21.1396 22.9539 20.3338 23.7598 19.3396 23.7598V23.7598C18.3455 23.7598 17.5396 22.9539 17.5396 21.9598V21.9598C17.5396 20.9657 18.3455 20.1598 19.3396 20.1598V20.1598C20.3338 20.1598 21.1396 20.9657 21.1396 21.9598V21.9598Z"/>
</mask>
<path d="M21.1396 22.9598C21.1396 23.9539 20.3338 24.7598 19.3396 24.7598C18.3455 24.7598 17.5396 23.9539 17.5396 22.9598L17.5396 21.9598C17.5396 22.4016 18.3455 22.7598 19.3396 22.7598C20.3338 22.7598 21.1396 22.4016 21.1396 21.9598L21.1396 22.9598ZM17.5396 20.1598L21.1396 20.1598L17.5396 20.1598ZM21.1396 20.1598L21.1396 23.7598L21.1396 20.1598ZM17.5396 23.7598L17.5396 20.1598L17.5396 23.7598Z" fill="black" fill-opacity="0.2" mask="url(#path-11-inside-2_31_54)"/>
<mask id="path-13-inside-3_31_54" fill="white">
<path d="M16.1001 21.9598C16.1001 22.9539 15.2942 23.7598 14.3001 23.7598V23.7598C13.306 23.7598 12.5001 22.9539 12.5001 21.9598V21.9598C12.5001 20.9657 13.306 20.1598 14.3001 20.1598V20.1598C15.2942 20.1598 16.1001 20.9657 16.1001 21.9598V21.9598Z"/>
</mask>
<path d="M16.1001 22.9598C16.1001 23.9539 15.2942 24.7598 14.3001 24.7598C13.306 24.7598 12.5001 23.9539 12.5001 22.9598L12.5001 21.9598C12.5001 22.4016 13.306 22.7598 14.3001 22.7598L14.3001 22.7598C15.2942 22.7598 16.1001 22.4016 16.1001 21.9598L16.1001 22.9598ZM12.5001 20.1598L16.1001 20.1598L12.5001 20.1598ZM16.1001 20.1598L16.1001 23.7598L16.1001 20.1598ZM12.5001 23.7598L12.5001 20.1598L12.5001 23.7598Z" fill="black" fill-opacity="0.2" mask="url(#path-13-inside-3_31_54)"/>
<mask id="path-15-inside-4_31_54" fill="white">
<path d="M11.0601 21.9598C11.0601 22.9539 10.2542 23.7598 9.26006 23.7598L5.66006 23.7598C4.66595 23.7598 3.86006 22.9539 3.86006 21.9598V21.9598C3.86006 20.9657 4.66595 20.1598 5.66006 20.1598L9.26006 20.1598C10.2542 20.1598 11.0601 20.9657 11.0601 21.9598V21.9598Z"/>
</mask>
<path d="M11.0601 21.9598C11.0601 23.5062 9.80646 24.7598 8.26006 24.7598L6.66006 24.7598C5.11366 24.7598 3.86006 23.5062 3.86006 21.9598L3.86006 21.9598C3.86006 22.4016 4.66595 22.7598 5.66006 22.7598L9.26006 22.7598C10.2542 22.7598 11.0601 22.4016 11.0601 21.9598L11.0601 21.9598ZM3.86006 20.1598L11.0601 20.1598L3.86006 20.1598ZM11.0601 20.1598L11.0601 23.7598L11.0601 20.1598ZM3.86006 23.7598L3.86006 20.1598L3.86006 23.7598Z" fill="black" fill-opacity="0.2" mask="url(#path-15-inside-4_31_54)"/>
<mask id="path-17-inside-5_31_54" fill="white">
<path d="M16.1001 5.15996C16.1001 6.15407 15.2942 6.95996 14.3001 6.95996L5.6601 6.95996C4.66599 6.95996 3.8601 6.15407 3.8601 5.15996V5.15996C3.8601 4.16585 4.66599 3.35996 5.6601 3.35996L14.3001 3.35996C15.2942 3.35996 16.1001 4.16585 16.1001 5.15996V5.15996Z"/>
</mask>
<path d="M16.1001 5.15996C16.1001 6.70636 14.8465 7.95996 13.3001 7.95996L6.6601 7.95996C5.1137 7.95996 3.8601 6.70635 3.8601 5.15996C3.8601 5.60179 4.66598 5.95996 5.6601 5.95996L14.3001 5.95996C15.2942 5.95996 16.1001 5.60179 16.1001 5.15996ZM3.8601 3.35996L16.1001 3.35996L3.8601 3.35996ZM16.1001 3.35996L16.1001 6.95996L16.1001 3.35996ZM3.8601 6.95996L3.8601 3.35996L3.8601 6.95996Z" fill="black" fill-opacity="0.2" mask="url(#path-17-inside-5_31_54)"/>
<mask id="path-19-inside-6_31_54" fill="white">
<path d="M7.45996 13.5599C7.45996 14.554 6.65407 15.3599 5.65996 15.3599V15.3599C4.66585 15.3599 3.85996 14.554 3.85996 13.5599V13.5599C3.85996 12.5658 4.66585 11.7599 5.65996 11.7599V11.7599C6.65407 11.7599 7.45996 12.5658 7.45996 13.5599V13.5599Z"/>
</mask>
<path d="M7.45996 14.5599C7.45996 15.554 6.65407 16.3599 5.65996 16.3599L5.65996 16.3599C4.66585 16.3599 3.85996 15.554 3.85996 14.5599L3.85996 13.5599C3.85996 14.0017 4.66585 14.3599 5.65996 14.3599C6.65407 14.3599 7.45996 14.0017 7.45996 13.5599L7.45996 14.5599ZM3.85996 11.7599L7.45996 11.7599L3.85996 11.7599ZM7.45996 11.7599L7.45996 15.3599L7.45996 11.7599ZM3.85996 15.3599L3.85996 11.7599L3.85996 15.3599Z" fill="black" fill-opacity="0.2" mask="url(#path-19-inside-6_31_54)"/>
<mask id="path-21-inside-7_31_54" fill="white">
<path d="M21.1396 13.5599C21.1396 14.554 20.3338 15.3599 19.3396 15.3599L10.6996 15.3599C9.70554 15.3599 8.89965 14.554 8.89965 13.5599V13.5599C8.89965 12.5658 9.70554 11.7599 10.6996 11.7599L19.3396 11.7599C20.3338 11.7599 21.1396 12.5658 21.1396 13.5599V13.5599Z"/>
</mask>
<path d="M21.1396 13.5599C21.1396 15.1063 19.886 16.3599 18.3396 16.3599L11.6996 16.3599C10.1533 16.3599 8.89965 15.1063 8.89965 13.5599C8.89965 14.0017 9.70554 14.3599 10.6996 14.3599L19.3396 14.3599C20.3338 14.3599 21.1396 14.0017 21.1396 13.5599ZM8.89965 11.7599L21.1396 11.7599L8.89965 11.7599ZM21.1396 11.7599L21.1396 15.3599L21.1396 11.7599ZM8.89965 15.3599L8.89965 11.7599L8.89965 15.3599Z" fill="black" fill-opacity="0.2" mask="url(#path-21-inside-7_31_54)"/>
</svg>
