<svg width="27" height="33" viewBox="0 0 27 33" fill="none" xmlns="http://www.w3.org/2000/svg">
<path fill-rule="evenodd" clip-rule="evenodd" d="M25.5628 0.634033C24.8499 0.634033 24.2719 1.21197 24.2719 1.92489V10.3068C24.2719 10.7037 23.7497 10.885 23.4823 10.5916C21.1169 7.99573 17.7087 6.3667 13.92 6.3667C10.1313 6.3667 6.72311 7.99573 4.35762 10.5916C4.09027 10.885 3.56804 10.7037 3.56804 10.3068V1.92489C3.56804 1.21197 2.9901 0.634033 2.27718 0.634033C1.56426 0.634033 0.986328 1.21197 0.986328 1.92489V30.9432C0.986328 31.6561 1.56426 32.234 2.27718 32.234C2.9901 32.234 3.56804 31.6561 3.56804 30.9432V28.2939C3.56804 27.897 4.09027 27.7158 4.35762 28.0091C6.72311 30.605 10.1313 32.234 13.92 32.234C21.063 32.234 26.8536 26.4434 26.8536 19.3004C26.8536 19.292 26.8536 19.2837 26.8536 19.2753C26.8536 19.2688 26.8536 19.2623 26.8536 19.2558C26.8536 19.2511 26.8536 19.2464 26.8536 19.2417V1.92489C26.8536 1.21197 26.2757 0.634033 25.5628 0.634033ZM13.92 29.7803C19.7079 29.7803 24.3999 25.0882 24.3999 19.3004C24.3999 13.5125 19.7079 8.82045 13.92 8.82045C8.13209 8.82045 3.44008 13.5125 3.44008 19.3004C3.44008 25.0882 8.13209 29.7803 13.92 29.7803Z" fill="black"/>
</svg>
