<svg width="252" height="307" viewBox="0 0 252 307" fill="none" xmlns="http://www.w3.org/2000/svg">
<path fill-rule="evenodd" clip-rule="evenodd" d="M227.199 0.341431C214.004 0.341431 203.307 11.0382 203.307 24.2333V74.4281C203.307 77.7686 199.422 79.6769 196.669 77.7857C176.525 63.9504 152.132 55.8538 125.848 55.8538C99.5638 55.8538 75.1708 63.9504 55.0269 77.7857C52.2734 79.6769 48.3884 77.7686 48.3884 74.4281L48.3884 24.2333C48.3884 11.0382 37.6917 0.341431 24.4965 0.341431C11.3014 0.341431 0.604614 11.0382 0.604614 24.2333L0.604614 181.097L0.604614 282.448C0.604614 295.643 11.3014 306.34 24.4965 306.34C37.6917 306.34 48.3884 295.643 48.3884 282.448V282.448C48.3884 281.262 49.7603 280.594 50.7087 281.306C71.6397 297.026 97.656 306.34 125.848 306.34C193.434 306.34 248.516 252.806 251.003 185.829C251.061 185.149 251.091 184.461 251.091 183.767V181.097L251.091 24.2333C251.091 11.0382 240.394 0.341431 227.199 0.341431ZM125.848 258.556C168.627 258.556 203.307 223.877 203.307 181.097C203.307 138.317 168.627 103.638 125.848 103.638C83.0682 103.638 48.3884 138.317 48.3884 181.097C48.3884 223.877 83.0682 258.556 125.848 258.556Z" fill="white"/>
</svg>
