<svg width="33" height="33" viewBox="0 0 33 33" fill="none" xmlns="http://www.w3.org/2000/svg">
<g clip-path="url(#clip0_225_1129)">
<path fill-rule="evenodd" clip-rule="evenodd" d="M28.9739 30.8643L28.9739 2.54675C31.0573 3.50142 32.4739 5.60296 32.4739 8.0022L32.4739 25.4088C32.4739 27.8081 31.0573 29.9096 28.9739 30.8643ZM26.4739 1.9555L26.4739 31.4555L23.9739 31.768L23.9739 1.643L26.4739 1.9555ZM21.4739 1.3305L18.9739 1.018L18.9739 32.393L21.4739 32.0805L21.4739 1.3305ZM15.7297 0.798529C15.9768 0.767641 16.2253 0.752197 16.4739 0.752197L16.4739 32.6588C16.2253 32.6588 15.9768 32.6434 15.7297 32.6125L5.72967 31.3625C2.7271 30.9872 0.473876 28.4347 0.473876 25.4088L0.473877 8.0022C0.473877 4.97626 2.7271 2.42385 5.72967 2.04853L15.7297 0.798529ZM8.47388 24.7056C9.3023 24.7056 9.97388 24.0341 9.97388 23.2056C9.97388 22.3772 9.3023 21.7056 8.47388 21.7056C7.64545 21.7056 6.97388 22.3772 6.97388 23.2056C6.97388 24.0341 7.64545 24.7056 8.47388 24.7056Z" fill="white"/>
</g>
<defs>
<clipPath id="clip0_225_1129">
<rect width="32" height="32" fill="white" transform="translate(0.473877 0.705444)"/>
</clipPath>
</defs>
</svg>
