<svg width="33" height="33" viewBox="0 0 33 33" fill="none" xmlns="http://www.w3.org/2000/svg">
<g clip-path="url(#clip0_235_1076)">
<path fill-rule="evenodd" clip-rule="evenodd" d="M28.949 30.8643L28.949 2.54675C31.0324 3.50142 32.449 5.60296 32.449 8.0022L32.449 25.4088C32.449 27.8081 31.0324 29.9096 28.949 30.8643ZM26.449 1.9555L26.449 31.4555L23.949 31.768L23.949 1.643L26.449 1.9555ZM21.449 1.3305L18.949 1.018L18.949 32.393L21.449 32.0805L21.449 1.3305ZM15.7048 0.798529C15.9519 0.767641 16.2004 0.752197 16.449 0.752197L16.449 32.6588C16.2004 32.6588 15.9519 32.6434 15.7048 32.6125L5.70477 31.3625C2.70219 30.9872 0.448973 28.4347 0.448974 25.4088L0.448974 8.0022C0.448974 4.97626 2.70219 2.42385 5.70477 2.04853L15.7048 0.798529ZM8.44898 24.7056C9.2774 24.7056 9.94898 24.0341 9.94898 23.2056C9.94898 22.3772 9.2774 21.7056 8.44898 21.7056C7.62055 21.7056 6.94898 22.3772 6.94898 23.2056C6.94898 24.0341 7.62055 24.7056 8.44898 24.7056Z" fill="#221F23"/>
</g>
<defs>
<clipPath id="clip0_235_1076">
<rect width="32" height="32" fill="white" transform="translate(0.448975 0.705444)"/>
</clipPath>
</defs>
</svg>
