<svg width="216" height="51" viewBox="0 0 216 51" fill="none" xmlns="http://www.w3.org/2000/svg">
<rect x="0.484863" y="0.377686" width="215.031" height="50.2802" rx="8" fill="#221F23"/>
<g clip-path="url(#clip0_270_1081)">
<path fill-rule="evenodd" clip-rule="evenodd" d="M37.5 39.0826L37.5 10.7651C39.5835 11.7198 41 13.8213 41 16.2206L41 33.6272C41 36.0264 39.5835 38.128 37.5 39.0826ZM35 10.1739L35 39.6739L32.5 39.9864L32.5 9.86139L35 10.1739ZM30 9.54889L27.5 9.23639L27.5 40.6114L30 40.2989L30 9.54889ZM24.2558 9.01691C24.5029 8.98602 24.7514 8.97058 25 8.97058L25 40.8772C24.7514 40.8772 24.5029 40.8618 24.2558 40.8309L14.2558 39.5809C11.2532 39.2055 9 36.6531 9 33.6272L9 16.2206C9 13.1946 11.2532 10.6422 14.2558 10.2669L24.2558 9.01691ZM17 32.924C17.8284 32.924 18.5 32.2524 18.5 31.424C18.5 30.5956 17.8284 29.924 17 29.924C16.1716 29.924 15.5 30.5956 15.5 31.424C15.5 32.2524 16.1716 32.924 17 32.924Z" fill="white"/>
</g>
<path d="M55.292 32.3478H61.872V34.9238H52.1V15.4638H55.292V32.3478ZM64.5454 15.4638H68.0174L65.0774 22.1278H62.8374L64.5454 15.4638ZM71.9467 17.4518C71.368 17.4518 70.8827 17.2558 70.4907 16.8638C70.0987 16.4718 69.9027 15.9865 69.9027 15.4078C69.9027 14.8292 70.0987 14.3438 70.4907 13.9518C70.8827 13.5598 71.368 13.3638 71.9467 13.3638C72.5067 13.3638 72.9827 13.5598 73.3747 13.9518C73.7667 14.3438 73.9627 14.8292 73.9627 15.4078C73.9627 15.9865 73.7667 16.4718 73.3747 16.8638C72.9827 17.2558 72.5067 17.4518 71.9467 17.4518ZM73.5147 19.4958V34.9238H70.3227V19.4958H73.5147ZM84.9895 19.2438C86.2028 19.2438 87.2855 19.4958 88.2375 19.9998C89.2081 20.5038 89.9641 21.2505 90.5055 22.2398C91.0468 23.2292 91.3175 24.4238 91.3175 25.8238V34.9238H88.1535V26.2998C88.1535 24.9185 87.8081 23.8638 87.1175 23.1358C86.4268 22.3892 85.4841 22.0158 84.2895 22.0158C83.0948 22.0158 82.1428 22.3892 81.4335 23.1358C80.7428 23.8638 80.3975 24.9185 80.3975 26.2998V34.9238H77.2055V19.4958H80.3975V21.2598C80.9201 20.6252 81.5828 20.1305 82.3855 19.7758C83.2068 19.4212 84.0748 19.2438 84.9895 19.2438ZM100.853 32.0678L105.221 19.4958H108.609L102.729 34.9238H98.9211L93.0691 19.4958H96.4851L100.853 32.0678ZM124.662 26.8318C124.662 27.4105 124.625 27.9332 124.55 28.3998H112.762C112.855 29.6318 113.313 30.6212 114.134 31.3678C114.955 32.1145 115.963 32.4878 117.158 32.4878C118.875 32.4878 120.089 31.7692 120.798 30.3318H124.242C123.775 31.7505 122.926 32.9172 121.694 33.8318C120.481 34.7278 118.969 35.1758 117.158 35.1758C115.683 35.1758 114.358 34.8492 113.182 34.1958C112.025 33.5238 111.11 32.5905 110.438 31.3958C109.785 30.1825 109.458 28.7825 109.458 27.1958C109.458 25.6092 109.775 24.2185 110.41 23.0238C111.063 21.8105 111.969 20.8772 113.126 20.2238C114.302 19.5705 115.646 19.2438 117.158 19.2438C118.614 19.2438 119.911 19.5612 121.05 20.1958C122.189 20.8305 123.075 21.7265 123.71 22.8838C124.345 24.0225 124.662 25.3385 124.662 26.8318ZM121.33 25.8238C121.311 24.6478 120.891 23.7052 120.07 22.9958C119.249 22.2865 118.231 21.9318 117.018 21.9318C115.917 21.9318 114.974 22.2865 114.19 22.9958C113.406 23.6865 112.939 24.6292 112.79 25.8238H121.33ZM135.087 19.2438C136.3 19.2438 137.383 19.4958 138.335 19.9998C139.306 20.5038 140.062 21.2505 140.603 22.2398C141.144 23.2292 141.415 24.4238 141.415 25.8238V34.9238H138.251V26.2998C138.251 24.9185 137.906 23.8638 137.215 23.1358C136.524 22.3892 135.582 22.0158 134.387 22.0158C133.192 22.0158 132.24 22.3892 131.531 23.1358C130.84 23.8638 130.495 24.9185 130.495 26.2998V34.9238H127.303V19.4958H130.495V21.2598C131.018 20.6252 131.68 20.1305 132.483 19.7758C133.304 19.4212 134.172 19.2438 135.087 19.2438ZM148.711 22.0998V30.6398C148.711 31.2185 148.841 31.6385 149.103 31.8998C149.383 32.1425 149.849 32.2638 150.503 32.2638H152.463V34.9238H149.943C148.505 34.9238 147.404 34.5878 146.639 33.9158C145.873 33.2438 145.491 32.1518 145.491 30.6398V22.0998H143.671V19.4958H145.491V15.6598H148.711V19.4958H152.463V22.0998H148.711ZM153.841 27.1398C153.841 25.5905 154.158 24.2185 154.793 23.0238C155.446 21.8292 156.323 20.9052 157.425 20.2518C158.545 19.5798 159.777 19.2438 161.121 19.2438C162.334 19.2438 163.389 19.4865 164.285 19.9718C165.199 20.4385 165.927 21.0265 166.469 21.7358V19.4958H169.689V34.9238H166.469V32.6278C165.927 33.3558 165.19 33.9625 164.257 34.4478C163.323 34.9332 162.259 35.1758 161.065 35.1758C159.739 35.1758 158.526 34.8398 157.425 34.1678C156.323 33.4772 155.446 32.5252 154.793 31.3118C154.158 30.0798 153.841 28.6892 153.841 27.1398ZM166.469 27.1958C166.469 26.1318 166.245 25.2078 165.797 24.4238C165.367 23.6398 164.798 23.0425 164.089 22.6318C163.379 22.2212 162.614 22.0158 161.793 22.0158C160.971 22.0158 160.206 22.2212 159.497 22.6318C158.787 23.0238 158.209 23.6118 157.761 24.3958C157.331 25.1612 157.117 26.0758 157.117 27.1398C157.117 28.2038 157.331 29.1372 157.761 29.9398C158.209 30.7425 158.787 31.3585 159.497 31.7878C160.225 32.1985 160.99 32.4038 161.793 32.4038C162.614 32.4038 163.379 32.1985 164.089 31.7878C164.798 31.3772 165.367 30.7798 165.797 29.9958C166.245 29.1932 166.469 28.2598 166.469 27.1958ZM175.005 17.4518C174.427 17.4518 173.941 17.2558 173.549 16.8638C173.157 16.4718 172.961 15.9865 172.961 15.4078C172.961 14.8292 173.157 14.3438 173.549 13.9518C173.941 13.5598 174.427 13.3638 175.005 13.3638C175.565 13.3638 176.041 13.5598 176.433 13.9518C176.825 14.3438 177.021 14.8292 177.021 15.4078C177.021 15.9865 176.825 16.4718 176.433 16.8638C176.041 17.2558 175.565 17.4518 175.005 17.4518ZM176.573 19.4958V34.9238H173.381V19.4958H176.573ZM183.456 21.7358C183.923 20.9518 184.539 20.3452 185.304 19.9158C186.088 19.4678 187.012 19.2438 188.076 19.2438V22.5478H187.264C186.013 22.5478 185.061 22.8652 184.408 23.4998C183.773 24.1345 183.456 25.2358 183.456 26.8038V34.9238H180.264V19.4958H183.456V21.7358ZM204.65 26.8318C204.65 27.4105 204.613 27.9332 204.538 28.3998H192.75C192.843 29.6318 193.301 30.6212 194.122 31.3678C194.943 32.1145 195.951 32.4878 197.146 32.4878C198.863 32.4878 200.077 31.7692 200.786 30.3318H204.23C203.763 31.7505 202.914 32.9172 201.682 33.8318C200.469 34.7278 198.957 35.1758 197.146 35.1758C195.671 35.1758 194.346 34.8492 193.17 34.1958C192.013 33.5238 191.098 32.5905 190.426 31.3958C189.773 30.1825 189.446 28.7825 189.446 27.1958C189.446 25.6092 189.763 24.2185 190.398 23.0238C191.051 21.8105 191.957 20.8772 193.114 20.2238C194.29 19.5705 195.634 19.2438 197.146 19.2438C198.602 19.2438 199.899 19.5612 201.038 20.1958C202.177 20.8305 203.063 21.7265 203.698 22.8838C204.333 24.0225 204.65 25.3385 204.65 26.8318ZM201.318 25.8238C201.299 24.6478 200.879 23.7052 200.058 22.9958C199.237 22.2865 198.219 21.9318 197.006 21.9318C195.905 21.9318 194.962 22.2865 194.178 22.9958C193.394 23.6865 192.927 24.6292 192.778 25.8238H201.318Z" fill="white"/>
<defs>
<clipPath id="clip0_270_1081">
<rect width="32" height="32" fill="white" transform="translate(9 8.92383)"/>
</clipPath>
</defs>
</svg>
