<svg xmlns="http://www.w3.org/2000/svg" version="1.1" xmlns:xlink="http://www.w3.org/1999/xlink" xmlns:svgjs="http://svgjs.com/svgjs" width="25" height="25"><svg width="25" height="25" viewBox="0 0 25 25" fill="none" xmlns="http://www.w3.org/2000/svg">
<path fill-rule="evenodd" clip-rule="evenodd" d="M4.58 0.459961C2.32668 0.459961 0.5 2.28664 0.5 4.53996V24.46H2.42L2.42 22.42C2.42 20.6306 3.8706 19.18 5.66 19.18L19.34 19.18C21.1294 19.18 22.58 20.6306 22.58 22.42L22.58 24.46H24.5V4.53996C24.5 2.28664 22.6733 0.459961 20.42 0.459961H4.58ZM5.66 2.37996C3.8706 2.37996 2.42 3.83056 2.42 5.61996C2.42 7.40936 3.8706 8.85996 5.66 8.85996L19.34 8.85996C21.1294 8.85996 22.58 7.40937 22.58 5.61996C22.58 3.83056 21.1294 2.37996 19.34 2.37996L5.66 2.37996ZM5.66 10.78C3.8706 10.78 2.42 12.2306 2.42 14.02C2.42 15.8094 3.8706 17.26 5.66 17.26L19.34 17.26C21.1294 17.26 22.58 15.8094 22.58 14.02C22.58 12.2306 21.1294 10.78 19.34 10.78L5.66 10.78Z" fill="#22241C"></path>
<rect x="21.1396" y="7.41992" width="3.6" height="3.6" rx="1.8" transform="rotate(-180 21.1396 7.41992)" fill="#987655"></rect>
<rect x="21.1396" y="24.2197" width="3.6" height="3.6" rx="1.8" transform="rotate(-180 21.1396 24.2197)" fill="#987655"></rect>
<rect x="16.1001" y="24.2197" width="3.6" height="3.6" rx="1.8" transform="rotate(-180 16.1001 24.2197)" fill="#987655"></rect>
<rect x="11.0601" y="24.2197" width="7.2" height="3.6" rx="1.8" transform="rotate(-180 11.0601 24.2197)" fill="#987655"></rect>
<rect x="16.1001" y="7.41992" width="12.24" height="3.6" rx="1.8" transform="rotate(-180 16.1001 7.41992)" fill="#987655"></rect>
<rect x="7.45996" y="15.8198" width="3.6" height="3.6" rx="1.8" transform="rotate(-180 7.45996 15.8198)" fill="#987655"></rect>
<rect x="21.1396" y="15.8198" width="12.24" height="3.6" rx="1.8" transform="rotate(-180 21.1396 15.8198)" fill="#987655"></rect>
<mask id="SvgjsMask1006" fill="white">
<path d="M21.1396 5.61992C21.1396 6.61403 20.3338 7.41992 19.3396 7.41992C18.3455 7.41992 17.5396 6.61403 17.5396 5.61992C17.5396 4.62581 18.3455 3.81992 19.3396 3.81992C20.3338 3.81992 21.1396 4.62581 21.1396 5.61992Z"></path>
</mask>
<path d="M21.1396 6.61992C21.1396 7.61403 20.3338 8.41992 19.3396 8.41992C18.3455 8.41992 17.5396 7.61403 17.5396 6.61992L17.5396 5.61992C17.5396 6.06175 18.3455 6.41992 19.3396 6.41992C20.3338 6.41992 21.1396 6.06175 21.1396 5.61992L21.1396 6.61992ZM17.5396 3.81992L21.1396 3.81992L17.5396 3.81992ZM21.1396 3.81992L21.1396 7.41992L21.1396 3.81992ZM17.5396 7.41992L17.5396 3.81992L17.5396 7.41992Z" fill="black" fill-opacity="0.2" mask="url(#path-9-inside-1_14_570)"></path>
<mask id="SvgjsMask1005" fill="white">
<path d="M21.1396 22.4197C21.1396 23.4138 20.3338 24.2197 19.3396 24.2197C18.3455 24.2197 17.5396 23.4138 17.5396 22.4197C17.5396 21.4256 18.3455 20.6197 19.3396 20.6197C20.3338 20.6197 21.1396 21.4256 21.1396 22.4197Z"></path>
</mask>
<path d="M21.1396 23.4197C21.1396 24.4138 20.3338 25.2197 19.3396 25.2197C18.3455 25.2197 17.5396 24.4138 17.5396 23.4197L17.5396 22.4197C17.5396 22.8616 18.3455 23.2197 19.3396 23.2197C20.3338 23.2197 21.1396 22.8616 21.1396 22.4197L21.1396 23.4197ZM17.5396 20.6197L21.1396 20.6197L17.5396 20.6197ZM21.1396 20.6197L21.1396 24.2197L21.1396 20.6197ZM17.5396 24.2197L17.5396 20.6197L17.5396 24.2197Z" fill="black" fill-opacity="0.2" mask="url(#path-11-inside-2_14_570)"></path>
<mask id="SvgjsMask1004" fill="white">
<path d="M16.1001 22.4197C16.1001 23.4138 15.2942 24.2197 14.3001 24.2197C13.306 24.2197 12.5001 23.4138 12.5001 22.4197C12.5001 21.4256 13.306 20.6197 14.3001 20.6197C15.2942 20.6197 16.1001 21.4256 16.1001 22.4197Z"></path>
</mask>
<path d="M16.1001 23.4197C16.1001 24.4138 15.2942 25.2197 14.3001 25.2197C13.306 25.2197 12.5001 24.4138 12.5001 23.4197L12.5001 22.4197C12.5001 22.8616 13.306 23.2197 14.3001 23.2197L14.3001 23.2197C15.2942 23.2197 16.1001 22.8616 16.1001 22.4197L16.1001 23.4197ZM12.5001 20.6197L16.1001 20.6197L12.5001 20.6197ZM16.1001 20.6197L16.1001 24.2197L16.1001 20.6197ZM12.5001 24.2197L12.5001 20.6197L12.5001 24.2197Z" fill="black" fill-opacity="0.2" mask="url(#path-13-inside-3_14_570)"></path>
<mask id="SvgjsMask1003" fill="white">
<path d="M11.0601 22.4197C11.0601 23.4138 10.2542 24.2197 9.26006 24.2197L5.66006 24.2197C4.66595 24.2197 3.86006 23.4138 3.86006 22.4197C3.86006 21.4256 4.66595 20.6197 5.66006 20.6197L9.26006 20.6197C10.2542 20.6197 11.0601 21.4256 11.0601 22.4197Z"></path>
</mask>
<path d="M11.0601 22.4197C11.0601 23.9661 9.80646 25.2197 8.26006 25.2197L6.66006 25.2197C5.11366 25.2197 3.86006 23.9661 3.86006 22.4197L3.86006 22.4197C3.86006 22.8616 4.66595 23.2197 5.66006 23.2197L9.26006 23.2197C10.2542 23.2197 11.0601 22.8616 11.0601 22.4197L11.0601 22.4197ZM3.86006 20.6197L11.0601 20.6197L3.86006 20.6197ZM11.0601 20.6197L11.0601 24.2197L11.0601 20.6197ZM3.86006 24.2197L3.86006 20.6197L3.86006 24.2197Z" fill="black" fill-opacity="0.2" mask="url(#path-15-inside-4_14_570)"></path>
<mask id="SvgjsMask1002" fill="white">
<path d="M16.1001 5.61992C16.1001 6.61403 15.2942 7.41992 14.3001 7.41992L5.6601 7.41992C4.66599 7.41992 3.8601 6.61403 3.8601 5.61992C3.8601 4.62581 4.66599 3.81992 5.6601 3.81992L14.3001 3.81992C15.2942 3.81992 16.1001 4.62581 16.1001 5.61992Z"></path>
</mask>
<path d="M16.1001 5.61992C16.1001 7.16632 14.8465 8.41992 13.3001 8.41992L6.6601 8.41992C5.1137 8.41992 3.8601 7.16632 3.8601 5.61992C3.8601 6.06175 4.66598 6.41992 5.6601 6.41992L14.3001 6.41992C15.2942 6.41992 16.1001 6.06175 16.1001 5.61992ZM3.8601 3.81992L16.1001 3.81992L3.8601 3.81992ZM16.1001 3.81992L16.1001 7.41992L16.1001 3.81992ZM3.8601 7.41992L3.8601 3.81992L3.8601 7.41992Z" fill="black" fill-opacity="0.2" mask="url(#path-17-inside-5_14_570)"></path>
<mask id="SvgjsMask1001" fill="white">
<path d="M7.45996 14.0198C7.45996 15.0139 6.65407 15.8198 5.65996 15.8198C4.66585 15.8198 3.85996 15.0139 3.85996 14.0198C3.85996 13.0257 4.66585 12.2198 5.65996 12.2198C6.65407 12.2198 7.45996 13.0257 7.45996 14.0198Z"></path>
</mask>
<path d="M7.45996 15.0198C7.45996 16.0139 6.65407 16.8198 5.65996 16.8198L5.65996 16.8198C4.66585 16.8198 3.85996 16.0139 3.85996 15.0198L3.85996 14.0198C3.85996 14.4617 4.66585 14.8198 5.65996 14.8198C6.65407 14.8198 7.45996 14.4617 7.45996 14.0198L7.45996 15.0198ZM3.85996 12.2198L7.45996 12.2198L3.85996 12.2198ZM7.45996 12.2198L7.45996 15.8198L7.45996 12.2198ZM3.85996 15.8198L3.85996 12.2198L3.85996 15.8198Z" fill="black" fill-opacity="0.2" mask="url(#path-19-inside-6_14_570)"></path>
<mask id="SvgjsMask1000" fill="white">
<path d="M21.1396 14.0198C21.1396 15.0139 20.3338 15.8198 19.3396 15.8198L10.6996 15.8198C9.70554 15.8198 8.89965 15.0139 8.89965 14.0198C8.89965 13.0257 9.70554 12.2198 10.6996 12.2198L19.3396 12.2198C20.3338 12.2198 21.1396 13.0257 21.1396 14.0198Z"></path>
</mask>
<path d="M21.1396 14.0198C21.1396 15.5662 19.886 16.8198 18.3396 16.8198L11.6996 16.8198C10.1533 16.8198 8.89965 15.5662 8.89965 14.0198C8.89965 14.4617 9.70553 14.8198 10.6996 14.8198L19.3396 14.8198C20.3338 14.8198 21.1396 14.4617 21.1396 14.0198ZM8.89965 12.2198L21.1396 12.2198L8.89965 12.2198ZM21.1396 12.2198L21.1396 15.8198L21.1396 12.2198ZM8.89965 15.8198L8.89965 12.2198L8.89965 15.8198Z" fill="black" fill-opacity="0.2" mask="url(#path-21-inside-7_14_570)"></path>
</svg><style>@media (prefers-color-scheme: light) { :root { filter: none; } }
@media (prefers-color-scheme: dark) { :root { filter: none; } }
</style></svg>