<?xml version="1.0" standalone="no"?>
<!DOCTYPE svg PUBLIC "-//W3C//DTD SVG 20010904//EN"
 "http://www.w3.org/TR/2001/REC-SVG-20010904/DTD/svg10.dtd">
<svg version="1.0" xmlns="http://www.w3.org/2000/svg"
 width="1003.000000pt" height="1003.000000pt" viewBox="0 0 1003.000000 1003.000000"
 preserveAspectRatio="xMidYMid meet">
<metadata>
Created by potrace 1.14, written by Peter Selinger 2001-2017
</metadata>
<g transform="translate(0.000000,1003.000000) scale(0.100000,-0.100000)"
fill="#000000" stroke="none">
<path d="M805 10011 c-96 -21 -150 -40 -233 -80 -73 -36 -182 -109 -182 -122
0 -5 -5 -9 -11 -9 -13 0 -119 -107 -119 -120 0 -6 -5 -10 -10 -10 -6 0 -14 -8
-17 -17 -4 -10 -16 -27 -26 -38 -26 -28 -120 -222 -113 -234 3 -5 2 -11 -3
-13 -6 -1 -12 -14 -14 -28 -3 -14 -9 -36 -14 -50 -5 -14 -9 -41 -9 -62 1 -20
-2 -34 -5 -32 -3 2 -7 -17 -7 -42 -2 -31 1 -43 9 -38 6 3 4 -5 -5 -18 -12 -19
-14 -32 -7 -51 5 -14 7 -27 4 -30 -3 -3 -5 -41 -4 -84 1 -86 1 -81 1 -188 0
-41 0 -81 0 -87 0 -7 0 -82 -2 -165 -1 -84 1 -156 5 -159 3 -4 2 -15 -3 -25
-7 -11 -7 -20 0 -24 5 -3 6 -15 1 -28 -8 -21 -5 -109 4 -135 3 -7 0 -10 -5 -7
-6 3 -10 2 -10 -4 0 -5 5 -13 10 -16 8 -5 8 -11 0 -20 -7 -8 -7 -15 -1 -19 5
-4 6 -18 2 -34 -3 -15 -5 -61 -4 -102 4 -93 4 -75 3 -205 0 -60 0 -117 0 -125
1 -8 0 -68 -2 -132 -1 -65 1 -120 4 -123 3 -4 3 -19 -1 -33 -8 -27 -7 -67 3
-109 3 -13 1 -25 -3 -28 -9 -5 -8 -62 2 -71 3 -3 1 -19 -3 -35 -5 -16 -5 -42
0 -58 4 -16 6 -32 3 -35 -9 -8 -9 -86 0 -86 5 0 5 -5 2 -10 -6 -10 -10 -114
-5 -135 1 -5 2 -12 1 -15 -6 -17 -5 -303 2 -307 4 -2 3 -13 -3 -23 -7 -13 -7
-21 0 -25 6 -4 7 -11 4 -17 -7 -12 -10 -210 -3 -224 5 -8 4 -30 0 -36 -7 -9
-4 -308 2 -308 5 0 5 -5 1 -12 -9 -14 -9 -4810 0 -4888 10 -91 14 -112 31
-175 21 -79 117 -271 134 -267 7 1 10 -2 6 -8 -8 -13 44 -82 56 -74 5 3 8 2 7
-3 -5 -14 30 -55 41 -49 7 4 8 1 5 -8 -9 -24 13 -19 30 6 9 12 16 18 16 14 0
-5 -7 -17 -14 -25 -16 -18 -13 -26 23 -56 16 -13 22 -15 17 -5 -5 8 2 3 15
-13 17 -19 31 -26 47 -23 13 3 20 1 17 -5 -4 -5 -12 -6 -18 -2 -7 4 -6 0 2
-10 7 -9 19 -17 26 -17 7 0 18 -6 25 -14 6 -8 19 -12 27 -9 10 4 14 2 10 -4
-8 -13 89 -57 109 -49 8 3 13 2 10 -3 -3 -5 8 -14 24 -20 17 -5 30 -7 30 -4 0
3 6 1 13 -4 6 -6 22 -9 35 -8 12 1 22 -3 22 -8 0 -5 7 -7 15 -3 8 3 15 1 15
-3 0 -5 24 -8 54 -8 30 1 52 -1 50 -5 -7 -10 139 -6 154 5 8 6 12 5 12 -4 0
-8 5 -5 14 6 8 11 12 27 11 37 -2 10 0 20 4 22 10 7 8 -35 -3 -52 -11 -19 45
-11 62 8 8 8 11 9 7 2 -5 -10 0 -11 22 -6 15 4 32 9 38 12 5 4 16 7 25 7 8 1
48 14 88 30 56 22 71 32 67 44 -5 12 -3 13 6 4 8 -9 25 -3 68 24 31 19 67 47
80 62 13 14 20 19 15 11 -4 -8 22 15 59 50 37 35 65 70 63 77 -3 7 1 10 10 6
17 -6 18 8 2 27 -11 12 -10 12 3 2 17 -13 39 1 39 25 0 7 4 13 9 13 8 0 71
110 71 124 0 4 -5 4 -12 0 -7 -4 -8 -3 -4 5 4 6 11 9 16 6 12 -7 42 64 35 82
-2 8 -1 11 5 8 8 -5 24 49 24 85 0 8 4 17 8 20 4 3 10 28 13 55 4 28 9 52 11
54 2 2 -1 13 -7 24 -8 14 -8 18 0 13 7 -5 11 7 11 36 0 82 49 104 115 54 19
-15 40 -24 47 -20 7 4 8 3 4 -4 -4 -6 6 -19 21 -29 15 -10 30 -20 33 -24 3 -3
21 -14 40 -25 19 -10 40 -25 46 -33 6 -8 16 -11 22 -7 7 4 12 1 12 -9 0 -11 5
-15 16 -11 8 3 13 2 10 -3 -3 -5 27 -28 67 -52 39 -23 91 -55 114 -71 24 -16
43 -25 43 -21 0 4 4 3 8 -3 4 -6 43 -30 87 -53 44 -24 86 -47 93 -53 6 -6 12
-7 12 -4 0 4 13 -2 29 -14 28 -19 97 -53 113 -54 4 -1 13 -7 19 -13 7 -7 18
-13 24 -13 7 0 26 -7 43 -16 18 -8 37 -12 43 -8 8 4 9 3 5 -4 -6 -10 7 -17 17
-9 2 1 11 -6 20 -15 10 -9 27 -15 38 -13 12 3 19 1 15 -2 -7 -8 89 -54 116
-56 10 -1 18 -5 18 -9 0 -4 3 -7 8 -6 4 0 15 -2 25 -5 9 -4 25 -10 35 -14 9
-3 20 -7 25 -8 4 -2 8 -3 10 -5 1 -1 9 -3 17 -5 8 -2 32 -10 53 -19 35 -15 42
-14 37 9 -1 5 2 6 7 2 4 -5 8 -13 8 -19 0 -12 173 -70 186 -62 5 3 6 10 3 16
-4 7 -2 8 4 4 6 -4 9 -13 5 -21 -3 -10 2 -15 17 -15 12 0 29 -4 38 -9 9 -5 31
-11 47 -14 17 -3 45 -10 63 -16 17 -5 32 -8 32 -5 0 3 10 0 21 -7 17 -9 20 -8
13 3 -6 10 -4 10 10 -1 10 -8 25 -16 34 -17 10 -1 40 -7 67 -13 28 -6 60 -12
71 -15 12 -2 39 -7 60 -10 22 -4 47 -9 56 -12 9 -3 32 -7 50 -9 18 -2 58 -8
88 -12 30 -4 70 -8 88 -8 17 0 32 -3 32 -6 0 -3 21 -6 47 -8 26 -1 50 -4 55
-7 4 -3 8 1 8 8 0 10 2 10 8 1 12 -18 189 -28 520 -27 252 0 305 3 313 15 5 9
9 10 9 2 0 -6 9 -11 20 -10 11 1 20 4 20 7 0 3 20 5 44 4 49 -1 162 12 286 31
168 27 229 37 268 46 26 6 56 12 67 15 11 2 31 6 45 9 14 3 34 7 45 9 196 38
614 179 852 287 24 10 45 19 48 19 10 0 304 149 390 197 170 96 467 290 562
367 10 8 54 43 98 77 44 34 89 70 100 81 11 10 40 35 64 56 25 20 67 58 94 85
28 26 52 47 54 47 17 0 380 387 375 401 -1 5 5 9 13 9 8 0 15 4 15 9 0 4 11
21 25 37 74 85 135 161 135 168 0 4 11 19 24 33 14 15 23 30 20 35 -3 4 0 8 6
8 6 0 8 5 4 12 -4 6 -3 8 3 5 14 -9 37 19 27 34 -4 7 -3 9 3 6 14 -9 46 40 37
55 -4 6 -3 8 3 5 14 -9 46 40 37 55 -4 7 -3 8 5 4 6 -4 14 0 18 11 4 10 10 20
14 23 20 15 119 183 113 193 -4 7 -3 9 1 4 11 -9 57 72 48 86 -3 5 -2 7 4 4 5
-3 17 8 26 26 9 18 21 39 25 47 39 67 80 152 84 170 2 8 8 18 13 22 6 4 10 11
10 15 1 4 7 19 15 33 8 14 15 27 15 30 0 3 9 20 18 37 10 18 17 35 17 38 0 3
7 19 16 36 13 25 14 37 5 58 -10 24 -10 25 4 7 13 -17 15 -17 21 -3 3 10 7 28
8 41 0 13 4 22 7 20 13 -7 17 24 6 35 -9 9 -8 11 6 6 11 -5 17 -2 17 8 0 8 7
28 15 43 8 16 15 37 15 46 0 9 5 20 11 23 6 4 8 13 5 21 -3 8 -2 14 2 14 14 0
30 79 18 84 -6 2 -4 5 5 5 19 1 56 112 44 131 -5 8 -4 11 2 7 9 -6 34 64 46
128 2 11 7 27 10 35 4 8 9 29 12 45 3 17 7 35 9 42 1 7 5 16 9 19 4 4 1 14 -6
22 -9 13 -9 14 1 8 6 -4 12 -3 12 3 0 5 3 17 7 27 4 10 2 15 -4 11 -5 -3 -10
0 -10 8 0 8 5 13 11 12 5 -1 11 4 12 11 1 6 2 13 4 15 1 1 3 11 5 22 1 11 6
29 10 39 7 15 5 18 -7 14 -8 -4 -15 -1 -15 7 0 7 6 11 12 8 17 -6 26 32 11 48
-8 9 -8 10 0 6 14 -8 27 52 18 78 -5 12 -4 16 3 12 7 -4 12 7 15 27 2 22 0 32
-7 28 -5 -3 -4 2 4 11 7 9 11 17 7 17 -3 0 -1 12 4 26 8 19 7 23 -3 18 -9 -6
-9 -4 1 8 7 9 14 39 15 67 1 28 5 51 8 51 3 0 6 122 6 270 1 206 -1 269 -10
263 -9 -5 -9 -3 0 8 17 21 18 263 1 253 -11 -6 -11 -5 0 8 16 19 14 216 -2
237 -8 11 -8 13 1 8 10 -6 12 408 13 1910 0 2118 5 1954 -67 2100 -129 260
-353 443 -629 514 -113 28 -294 34 -409 12 -354 -66 -648 -336 -744 -682 -19
-69 -25 -107 -36 -229 -8 -102 -43 -107 -159 -24 -335 242 -649 415 -1071 592
-32 13 -90 35 -95 35 -3 1 -23 9 -45 19 -21 9 -46 18 -55 20 -8 2 -28 8 -44
15 -16 6 -36 13 -45 15 -9 2 -24 6 -33 10 -9 4 -22 9 -30 10 -7 2 -20 6 -28 9
-20 7 -107 33 -145 43 -16 4 -32 8 -35 9 -34 10 -90 25 -110 29 -14 3 -43 10
-65 15 -22 5 -41 8 -44 6 -2 -3 -9 -1 -15 4 -6 4 -42 14 -81 21 -38 7 -79 14
-90 16 -142 26 -323 52 -410 59 -22 2 -78 7 -125 11 -106 10 -612 11 -740 2
-150 -11 -365 -37 -475 -58 -27 -5 -66 -12 -85 -15 -98 -16 -310 -66 -450
-107 -559 -159 -1121 -434 -1584 -775 -98 -72 -130 -56 -140 72 -3 44 -8 94
-11 110 -72 376 -352 670 -725 761 -98 24 -306 27 -405 5z m-361 -659 c3 -5
-1 -9 -9 -9 -8 0 -12 4 -9 9 3 4 7 8 9 8 2 0 6 -4 9 -8z m-217 -127 c0 -8 -4
-12 -9 -9 -5 3 -6 10 -3 15 9 13 12 11 12 -6z m454 -528 c-10 -9 -11 -8 -5 6
3 10 9 15 12 12 3 -3 0 -11 -7 -18z m-507 -65 c3 -5 -1 -9 -9 -9 -8 0 -12 4
-9 9 3 4 7 8 9 8 2 0 6 -4 9 -8z m-84 -204 c0 -4 -4 -8 -9 -8 -6 0 -12 4 -15
8 -3 5 1 9 9 9 8 0 15 -4 15 -9z m80 -182 c0 -2 -8 -10 -17 -17 -16 -13 -17
-12 -4 4 13 16 21 21 21 13z m120 -56 c0 -5 -4 -10 -10 -10 -5 0 -10 5 -10 10
0 6 5 10 10 10 6 0 10 -4 10 -10z m5045 -84 c28 -3 70 -9 95 -12 90 -11 117
-15 220 -35 458 -90 885 -282 1264 -569 137 -104 163 -126 286 -244 381 -365
672 -845 824 -1362 14 -50 28 -99 30 -110 2 -10 15 -73 29 -139 14 -66 28
-145 32 -175 4 -30 9 -64 11 -75 23 -129 22 -607 -1 -737 -3 -13 -7 -42 -9
-63 -18 -152 -69 -367 -136 -565 -21 -63 -40 -122 -42 -130 -2 -8 -5 -17 -9
-20 -3 -3 -16 -30 -28 -60 -39 -90 -135 -282 -174 -347 -20 -33 -37 -66 -37
-72 0 -6 -4 -11 -8 -11 -4 0 -16 -15 -27 -32 -21 -37 -135 -200 -145 -208 -3
-3 -19 -23 -35 -45 -30 -40 -47 -60 -141 -164 -341 -379 -801 -679 -1298 -846
-121 -41 -334 -97 -416 -109 -19 -3 -46 -8 -60 -11 -14 -3 -45 -8 -70 -11 -25
-3 -58 -7 -75 -9 -104 -14 -211 -19 -360 -19 -151 0 -382 11 -395 19 -3 2 -27
6 -55 9 -487 62 -1011 282 -1430 599 -199 150 -400 348 -553 542 -35 44 -68
87 -75 95 -21 26 -142 212 -179 275 -142 239 -269 559 -336 845 -22 93 -30
130 -47 245 -4 28 -9 57 -10 66 -27 152 -27 621 1 809 19 129 57 312 90 430
159 573 503 1114 954 1501 41 35 77 66 80 69 19 19 142 108 230 167 196 131
364 218 585 306 124 49 347 120 421 133 14 3 54 11 88 19 58 13 80 17 171 30
22 3 51 8 65 10 14 2 61 7 105 11 44 3 81 7 83 8 5 6 440 -1 487 -8z m-5134
-83 c13 -16 12 -17 -3 -4 -17 13 -22 21 -14 21 2 0 10 -8 17 -17z m-111 -307
c0 -3 -4 -8 -10 -11 -5 -3 -10 -1 -10 4 0 6 5 11 10 11 6 0 10 -2 10 -4z m36
-252 c1 -9 0 -13 -4 -10 -3 4 -7 14 -8 22 -1 9 0 13 4 10 3 -4 7 -14 8 -22z
m479 -423 c3 -5 2 -12 -3 -15 -5 -3 -9 1 -9 9 0 17 3 19 12 6z m9159 -1377 c3
-8 2 -12 -4 -9 -6 3 -10 10 -10 16 0 14 7 11 14 -7z m-750 -312 c3 -5 -1 -9
-9 -9 -8 0 -12 4 -9 9 3 4 7 8 9 8 2 0 6 -4 9 -8z m514 -247 c-3 -3 -9 2 -12
12 -6 14 -5 15 5 6 7 -7 10 -15 7 -18z m-748 9 c0 -8 -19 -13 -24 -6 -3 5 1 9
9 9 8 0 15 -2 15 -3z m1194 -82 c3 -5 -1 -9 -9 -9 -8 0 -12 4 -9 9 3 4 7 8 9
8 2 0 6 -4 9 -8z m-1404 -78 c0 -8 -19 -13 -24 -6 -3 5 1 9 9 9 8 0 15 -2 15
-3z m1413 -89 c4 -8 3 -16 -1 -19 -4 -3 -9 4 -9 15 -2 23 3 25 10 4z m-1013
-35 c0 -5 -2 -10 -4 -10 -3 0 -8 5 -11 10 -3 6 -1 10 4 10 6 0 11 -4 11 -10z
m471 -13 c-10 -9 -11 -8 -5 6 3 10 9 15 12 12 3 -3 0 -11 -7 -18z m324 13 c3
-5 1 -10 -4 -10 -6 0 -11 5 -11 10 0 6 2 10 4 10 3 0 8 -4 11 -10z m-1235 -40
c0 -5 -5 -10 -11 -10 -5 0 -7 5 -4 10 3 6 8 10 11 10 2 0 4 -4 4 -10z m1420
-16 c0 -8 -19 -13 -24 -6 -3 5 1 9 9 9 8 0 15 -2 15 -3z m55 -24 c3 -5 1 -10
-4 -10 -6 0 -11 5 -11 10 0 6 2 10 4 10 3 0 8 -4 11 -10z m-138 -32 c2 -17 0
-19 -7 -8 -5 8 -6 18 -4 22 8 12 10 10 11 -14z m-152 -8 c-3 -5 -12 -10 -18
-10 -7 0 -6 4 3 10 19 12 23 12 15 0z m205 -16 c0 -8 -19 -13 -24 -6 -3 5 1 9
9 9 8 0 15 -2 15 -3z m25 -4 c3 -5 1 -10 -4 -10 -6 0 -11 5 -11 10 0 6 2 10 4
10 3 0 8 -4 11 -10z m-119 -42 c3 -4 -1 -5 -10 -4 -8 1 -18 5 -22 8 -3 4 1 5
10 4 8 -1 18 -5 22 -8z m-821 -7 c3 -5 2 -12 -3 -15 -5 -3 -9 1 -9 9 0 17 3
19 12 6z m685 -31 c0 -5 -2 -10 -4 -10 -3 0 -8 5 -11 10 -3 6 -1 10 4 10 6 0
11 -4 11 -10z m220 0 c0 -5 -5 -10 -11 -10 -5 0 -7 5 -4 10 3 6 8 10 11 10 2
0 4 -4 4 -10z m98 -25 c-3 -3 -9 2 -12 12 -6 14 -5 15 5 6 7 -7 10 -15 7 -18z
m-327 -32 c-12 -20 -14 -14 -5 12 4 9 9 14 11 11 3 -2 0 -13 -6 -23z m65 -8
c-1 -8 -5 -17 -8 -21 -5 -4 -4 16 1 34 3 9 9 -1 7 -13z m79 -15 c3 -5 1 -10
-4 -10 -6 0 -11 5 -11 10 0 6 2 10 4 10 3 0 8 -4 11 -10z m-119 -45 c-1 -8 -5
-17 -8 -21 -5 -4 -4 16 1 34 3 9 9 -1 7 -13z m124 5 c0 -5 -2 -10 -4 -10 -3 0
-8 5 -11 10 -3 6 -1 10 4 10 6 0 11 -4 11 -10z m-5 -29 c3 -5 2 -12 -3 -15 -5
-3 -9 1 -9 9 0 17 3 19 12 6z m60 -39 c-3 -3 -11 0 -18 7 -9 10 -8 11 6 5 10
-3 15 -9 12 -12z m40 0 c-3 -3 -11 0 -18 7 -9 10 -8 11 6 5 10 -3 15 -9 12
-12z m-175 -12 c0 -5 -2 -10 -4 -10 -3 0 -8 5 -11 10 -3 6 -1 10 4 10 6 0 11
-4 11 -10z m-900 -16 c0 -8 -19 -13 -24 -6 -3 5 1 9 9 9 8 0 15 -2 15 -3z
m120 0 c0 -8 -19 -13 -24 -6 -3 5 1 9 9 9 8 0 15 -2 15 -3z m835 -3 c3 -5 2
-12 -3 -15 -5 -3 -9 1 -9 9 0 17 3 19 12 6z m-159 -23 c3 -4 -1 -5 -10 -4 -8
1 -18 5 -22 8 -3 4 1 5 10 4 8 -1 18 -5 22 -8z m0 -40 c3 -4 -1 -5 -10 -4 -8
1 -18 5 -22 8 -3 4 1 5 10 4 8 -1 18 -5 22 -8z m59 2 c3 -5 1 -10 -4 -10 -6 0
-11 5 -11 10 0 6 2 10 4 10 3 0 8 -4 11 -10z m-285 -16 c0 -8 -19 -13 -24 -6
-3 5 1 9 9 9 8 0 15 -2 15 -3z m551 -7 c-6 -8 -7 -18 -3 -22 4 -5 1 -5 -6 -1
-10 6 -10 11 -1 22 6 8 14 14 16 14 3 0 0 -6 -6 -13z m-506 -37 c3 -5 1 -10
-4 -10 -6 0 -11 5 -11 10 0 6 2 10 4 10 3 0 8 -4 11 -10z m122 -15 c0 -8 -4
-12 -9 -9 -5 3 -6 10 -3 15 9 13 12 11 12 -6z m-253 -23 c3 -5 -1 -9 -9 -9 -8
0 -12 4 -9 9 3 4 7 8 9 8 2 0 6 -4 9 -8z m406 2 c0 -8 -19 -13 -24 -6 -3 5 1
9 9 9 8 0 15 -2 15 -3z m-154 -29 c-1 -8 -5 -17 -8 -21 -5 -4 -4 16 1 34 3 9
9 -1 7 -13z m39 5 c3 -5 1 -10 -4 -10 -6 0 -11 5 -11 10 0 6 2 10 4 10 3 0 8
-4 11 -10z m186 -17 c13 -16 12 -17 -3 -4 -10 7 -18 15 -18 17 0 8 8 3 21 -13z
m-86 -2 c3 -5 2 -12 -3 -15 -5 -3 -9 1 -9 9 0 17 3 19 12 6z m-175 -17 c0 -8
-19 -13 -24 -6 -3 5 1 9 9 9 8 0 15 -2 15 -3z m305 -4 c3 -6 -1 -7 -9 -4 -18
7 -21 14 -7 14 6 0 13 -4 16 -10z m-965 -4 c0 -2 -8 -10 -17 -17 -16 -13 -17
-12 -4 4 13 16 21 21 21 13z m755 -5 c3 -5 2 -12 -3 -15 -5 -3 -9 1 -9 9 0 17
3 19 12 6z m-395 -7 c0 -8 -19 -13 -24 -6 -3 5 1 9 9 9 8 0 15 -2 15 -3z m256
-20 c1 -9 0 -13 -4 -10 -3 4 -7 14 -8 22 -1 9 0 13 4 10 3 -4 7 -14 8 -22z
m428 18 c2 -4 -4 -8 -14 -8 -10 0 -16 4 -14 8 3 4 9 8 14 8 5 0 11 -4 14 -8z
m-331 -37 c-3 -9 -8 -14 -10 -11 -3 3 -2 9 2 15 9 16 15 13 8 -4z m-137 -41
c1 -9 0 -13 -4 -10 -3 4 -7 14 -8 22 -1 9 0 13 4 10 3 -4 7 -14 8 -22z m164
16 c0 -5 -5 -10 -11 -10 -5 0 -7 5 -4 10 3 6 8 10 11 10 2 0 4 -4 4 -10z m80
0 c0 -5 -5 -10 -11 -10 -5 0 -7 5 -4 10 3 6 8 10 11 10 2 0 4 -4 4 -10z m-165
-40 c3 -5 1 -10 -4 -10 -6 0 -11 5 -11 10 0 6 2 10 4 10 3 0 8 -4 11 -10z m80
0 c3 -5 1 -10 -4 -10 -6 0 -11 5 -11 10 0 6 2 10 4 10 3 0 8 -4 11 -10z m265
0 c0 -5 -5 -10 -11 -10 -5 0 -7 5 -4 10 3 6 8 10 11 10 2 0 4 -4 4 -10z m-600
-4 c0 -2 -8 -10 -17 -17 -16 -13 -17 -12 -4 4 13 16 21 21 21 13z m130 -12 c0
-8 -19 -13 -24 -6 -3 5 1 9 9 9 8 0 15 -2 15 -3z m350 -4 c0 -5 -5 -10 -11
-10 -5 0 -7 5 -4 10 3 6 8 10 11 10 2 0 4 -4 4 -10z m-446 -26 c3 -8 2 -12 -4
-9 -6 3 -10 10 -10 16 0 14 7 11 14 -7z m182 4 c3 -4 -1 -5 -10 -4 -8 1 -18 5
-22 8 -3 4 1 5 10 4 8 -1 18 -5 22 -8z m124 2 c0 -5 -2 -10 -4 -10 -3 0 -8 5
-11 10 -3 6 -1 10 4 10 6 0 11 -4 11 -10z m40 6 c0 -3 -4 -8 -10 -11 -5 -3
-10 -1 -10 4 0 6 5 11 10 11 6 0 10 -2 10 -4z m265 -26 c-3 -5 -12 -10 -18
-10 -7 0 -6 4 3 10 19 12 23 12 15 0z m-490 -19 c-9 -8 -36 -10 -30 -2 2 4 11
8 20 8 8 0 13 -3 10 -6z m105 -1 c0 -5 -2 -10 -4 -10 -3 0 -8 5 -11 10 -3 6
-1 10 4 10 6 0 11 -4 11 -10z m257 3 c-4 -3 -1 -13 6 -22 11 -14 10 -14 -5 -2
-16 12 -16 31 -1 31 4 0 3 -3 0 -7z m-1043 -29 c3 -8 2 -12 -4 -9 -6 3 -10 10
-10 16 0 14 7 11 14 -7z m482 4 c3 -4 -1 -5 -10 -4 -8 1 -18 5 -22 8 -3 4 1 5
10 4 8 -1 18 -5 22 -8z m414 8 c0 -2 -8 -10 -17 -17 -16 -13 -17 -12 -4 4 13
16 21 21 21 13z m-275 -15 c3 -5 2 -12 -3 -15 -5 -3 -9 1 -9 9 0 17 3 19 12 6z
m-415 -25 c0 -3 -4 -8 -10 -11 -5 -3 -10 -1 -10 4 0 6 5 11 10 11 6 0 10 -2
10 -4z m200 -6 c0 -5 -5 -10 -11 -10 -5 0 -7 5 -4 10 3 6 8 10 11 10 2 0 4 -4
4 -10z m176 -16 c1 -9 0 -13 -4 -10 -3 4 -7 14 -8 22 -1 9 0 13 4 10 3 -4 7
-14 8 -22z m545 -1 c13 -16 12 -17 -3 -4 -10 7 -18 15 -18 17 0 8 8 3 21 -13z
m-405 -5 c3 -4 -1 -5 -10 -4 -8 1 -18 5 -22 8 -3 4 1 5 10 4 8 -1 18 -5 22 -8z
m158 -28 c-6 -6 -10 -3 -10 10 0 13 4 16 10 10 7 -7 7 -13 0 -20z m40 4 c3 -8
2 -12 -4 -9 -6 3 -10 10 -10 16 0 14 7 11 14 -7z m-341 -29 c-7 -21 -12 -19
-10 4 0 11 5 18 9 15 4 -3 5 -11 1 -19z m202 15 c3 -5 1 -10 -4 -10 -6 0 -11
5 -11 10 0 6 2 10 4 10 3 0 8 -4 11 -10z m40 0 c3 -5 1 -10 -4 -10 -6 0 -11 5
-11 10 0 6 2 10 4 10 3 0 8 -4 11 -10z m300 1 c3 -5 2 -12 -3 -15 -5 -3 -9 1
-9 9 0 17 3 19 12 6z m-645 -17 c0 -8 -19 -13 -24 -6 -3 5 1 9 9 9 8 0 15 -2
15 -3z m525 -12 c-3 -3 -11 0 -18 7 -9 10 -8 11 6 5 10 -3 15 -9 12 -12z
m-340 -11 c-9 -8 -36 -10 -30 -2 2 4 11 8 20 8 8 0 13 -3 10 -6z m389 -3 c-3
-4 -9 -8 -15 -8 -5 0 -9 4 -9 8 0 5 7 9 15 9 8 0 12 -4 9 -9z m-30 -27 c-2 -3
-12 3 -22 13 -16 17 -16 18 5 5 12 -7 20 -15 17 -18z m-670 11 c3 -5 -1 -9 -9
-9 -8 0 -12 4 -9 9 3 4 7 8 9 8 2 0 6 -4 9 -8z m311 -11 c3 -5 2 -12 -3 -15
-5 -3 -9 1 -9 9 0 17 3 19 12 6z m-80 -10 c-9 -8 -36 -10 -30 -2 2 4 11 8 20
8 8 0 13 -3 10 -6z m390 -1 c3 -6 -1 -7 -9 -4 -18 7 -21 14 -7 14 6 0 13 -4
16 -10z m89 -21 c3 -3 -5 -5 -19 -5 -13 0 -22 3 -19 7 4 8 30 6 38 -2z m-581
-14 c-3 -9 -8 -14 -10 -11 -3 3 -2 9 2 15 9 16 15 13 8 -4z m523 -10 c-1 -8
-5 -17 -8 -21 -5 -4 -4 16 1 34 3 9 9 -1 7 -13z m-272 -13 c3 -5 -1 -9 -9 -9
-8 0 -12 4 -9 9 3 4 7 8 9 8 2 0 6 -4 9 -8z m-204 -22 c0 -5 -4 -10 -10 -10
-5 0 -10 5 -10 10 0 6 5 10 10 10 6 0 10 -4 10 -10z m70 4 c0 -8 -19 -13 -24
-6 -3 5 1 9 9 9 8 0 15 -2 15 -3z m74 -2 c3 -5 -1 -9 -9 -9 -8 0 -12 4 -9 9 3
4 7 8 9 8 2 0 6 -4 9 -8z m-349 -11 c3 -5 2 -12 -3 -15 -5 -3 -9 1 -9 9 0 17
3 19 12 6z m702 -6 c0 -8 -4 -15 -9 -15 -10 0 -11 14 -1 23 9 10 10 9 10 -8z
m-552 -5 c-3 -5 -12 -10 -18 -10 -7 0 -6 4 3 10 19 12 23 12 15 0z m611 -5
c-1 -8 -5 -17 -8 -21 -5 -4 -4 16 1 34 3 9 9 -1 7 -13z m-282 -45 c-6 -6 -10
-3 -10 10 0 13 4 16 10 10 7 -7 7 -13 0 -20z m136 15 c0 -2 -6 -8 -13 -14 -10
-8 -14 -7 -14 2 0 8 6 14 14 14 7 0 13 -1 13 -2z m-394 -41 c1 -9 0 -13 -4
-10 -3 4 -7 14 -8 22 -1 9 0 13 4 10 3 -4 7 -14 8 -22z m79 16 c3 -5 1 -10 -4
-10 -6 0 -11 5 -11 10 0 6 2 10 4 10 3 0 8 -4 11 -10z m342 -15 c0 -8 -4 -12
-9 -9 -5 3 -6 10 -3 15 9 13 12 11 12 -6z m-1027 -1 c0 -8 -19 -13 -24 -6 -3
5 1 9 9 9 8 0 15 -2 15 -3z m535 -4 c3 -6 -1 -7 -9 -4 -18 7 -21 14 -7 14 6 0
13 -4 16 -10z m469 -6 c3 -8 2 -12 -4 -9 -6 3 -10 10 -10 16 0 14 7 11 14 -7z
m83 1 c0 -8 -4 -12 -9 -9 -4 3 -8 9 -8 15 0 5 4 9 8 9 5 0 9 -7 9 -15z m53 11
c0 -2 -8 -10 -17 -17 -16 -13 -17 -12 -4 4 13 16 21 21 21 13z m-194 -21 c-1
-8 -8 -21 -16 -28 -10 -10 -11 -9 -4 3 5 8 9 18 10 23 3 14 4 17 8 17 2 0 3
-7 2 -15z m-366 -1 c0 -8 -19 -13 -24 -6 -3 5 1 9 9 9 8 0 15 -2 15 -3z m327
-9 c0 -8 -4 -12 -9 -9 -5 3 -6 10 -3 15 9 13 12 11 12 -6z m-952 -15 c3 -6 -1
-7 -9 -4 -18 7 -21 14 -7 14 6 0 13 -4 16 -10z m1071 -5 c-1 -8 -5 -17 -8 -21
-5 -4 -4 16 1 34 3 9 9 -1 7 -13z m41 -8 c0 -8 -6 -14 -14 -14 -9 0 -10 4 -2
14 6 7 12 13 14 13 1 0 2 -6 2 -13z m-421 -9 c3 -4 -1 -5 -10 -4 -8 1 -18 5
-22 8 -3 4 1 5 10 4 8 -1 18 -5 22 -8z m204 2 c0 -5 -5 -10 -11 -10 -5 0 -7 5
-4 10 3 6 8 10 11 10 2 0 4 -4 4 -10z m-860 -20 c0 -5 -2 -10 -4 -10 -3 0 -8
5 -11 10 -3 6 -1 10 4 10 6 0 11 -4 11 -10z m400 0 c0 -5 -2 -10 -4 -10 -3 0
-8 5 -11 10 -3 6 -1 10 4 10 6 0 11 -4 11 -10z m324 2 c3 -5 -1 -9 -9 -9 -8 0
-12 4 -9 9 3 4 7 8 9 8 2 0 6 -4 9 -8z m387 -9 c12 -16 12 -17 -2 -6 -9 7 -20
9 -24 5 -5 -4 -5 -1 -1 6 9 16 11 15 27 -5z m-154 -10 c-4 -3 -1 -13 6 -22 11
-14 10 -14 -5 -2 -16 12 -16 31 -1 31 4 0 3 -3 0 -7z m-462 -31 c-3 -3 -11 0
-18 7 -9 10 -8 11 6 5 10 -3 15 -9 12 -12z m125 -8 c0 -8 -19 -13 -24 -6 -3 5
1 9 9 9 8 0 15 -2 15 -3z m-83 -33 c0 -11 -5 -18 -9 -15 -4 3 -5 11 -1 19 7
21 12 19 10 -4z m294 2 c13 -16 12 -17 -3 -4 -10 7 -18 15 -18 17 0 8 8 3 21
-13z m120 0 c13 -16 12 -17 -3 -4 -10 7 -18 15 -18 17 0 8 8 3 21 -13z m-251
-13 c0 -5 -5 -10 -11 -10 -5 0 -7 5 -4 10 3 6 8 10 11 10 2 0 4 -4 4 -10z
m215 -9 c3 -5 2 -12 -3 -15 -5 -3 -9 1 -9 9 0 17 3 19 12 6z m-321 -17 c3 -8
2 -12 -4 -9 -6 3 -10 10 -10 16 0 14 7 11 14 -7z m463 1 c0 -8 -4 -12 -9 -9
-5 3 -6 10 -3 15 9 13 12 11 12 -6z m-357 -15 c0 -5 -2 -10 -4 -10 -3 0 -8 5
-11 10 -3 6 -1 10 4 10 6 0 11 -4 11 -10z m181 -17 c13 -16 12 -17 -3 -4 -10
7 -18 15 -18 17 0 8 8 3 21 -13z m-341 -3 c0 -5 -2 -10 -4 -10 -3 0 -8 5 -11
10 -3 6 -1 10 4 10 6 0 11 -4 11 -10z m440 0 c0 -5 -2 -10 -4 -10 -3 0 -8 5
-11 10 -3 6 -1 10 4 10 6 0 11 -4 11 -10z m74 2 c2 -4 -5 -9 -17 -9 -17 -2
-19 0 -7 7 18 12 18 12 24 2z m-439 -14 c5 4 5 1 1 -6 -6 -10 -11 -10 -22 -1
-8 6 -14 14 -14 16 0 3 6 0 13 -6 8 -6 18 -7 22 -3z m80 -8 c3 -5 1 -10 -4
-10 -6 0 -11 5 -11 10 0 6 2 10 4 10 3 0 8 -4 11 -10z m-375 -20 c0 -5 -2 -10
-4 -10 -3 0 -8 5 -11 10 -3 6 -1 10 4 10 6 0 11 -4 11 -10z m185 0 c3 -6 -1
-7 -9 -4 -18 7 -21 14 -7 14 6 0 13 -4 16 -10z m515 0 c0 -5 -2 -10 -4 -10 -3
0 -8 5 -11 10 -3 6 -1 10 4 10 6 0 11 -4 11 -10z m-444 -22 c3 -4 -1 -5 -10
-4 -8 1 -18 5 -22 8 -3 4 1 5 10 4 8 -1 18 -5 22 -8z m64 7 c0 -7 -30 -13 -34
-7 -3 4 4 9 15 9 10 1 19 0 19 -2z m394 -34 c-2 -3 -12 3 -22 13 -16 17 -16
18 5 5 12 -7 20 -15 17 -18z m-714 13 c0 -8 -19 -13 -24 -6 -3 5 1 9 9 9 8 0
15 -2 15 -3z m144 -2 c3 -5 -1 -9 -9 -9 -8 0 -12 4 -9 9 3 4 7 8 9 8 2 0 6 -4
9 -8z m216 2 c0 -8 -19 -13 -24 -6 -3 5 1 9 9 9 8 0 15 -2 15 -3z m-80 -28 c0
-2 -8 -10 -17 -17 -16 -13 -17 -12 -4 4 13 16 21 21 21 13z m153 -11 c-3 -9
-8 -14 -10 -11 -3 3 -2 9 2 15 9 16 15 13 8 -4z m-212 -8 c-6 -8 -7 -18 -3
-22 4 -5 1 -5 -6 -1 -10 6 -10 11 -1 22 6 8 14 14 16 14 3 0 0 -6 -6 -13z
m176 -2 c0 -8 -4 -12 -9 -9 -4 3 -8 9 -8 15 0 5 4 9 8 9 5 0 9 -7 9 -15z
m-282 -15 c3 -5 1 -10 -4 -10 -6 0 -11 5 -11 10 0 6 2 10 4 10 3 0 8 -4 11
-10z m239 -18 c3 -5 -1 -9 -9 -9 -8 0 -12 4 -9 9 3 4 7 8 9 8 2 0 6 -4 9 -8z
m216 4 c0 -2 -8 -10 -17 -17 -16 -13 -17 -12 -4 4 13 16 21 21 21 13z m-270
-26 c0 -5 -5 -10 -11 -10 -5 0 -7 5 -4 10 3 6 8 10 11 10 2 0 4 -4 4 -10z
m-146 -30 c-6 -6 -10 -3 -10 10 0 13 4 16 10 10 7 -7 7 -13 0 -20z m-114 10
c0 -5 -4 -10 -10 -10 -5 0 -10 5 -10 10 0 6 5 10 10 10 6 0 10 -4 10 -10z m75
0 c3 -5 1 -10 -4 -10 -6 0 -11 5 -11 10 0 6 2 10 4 10 3 0 8 -4 11 -10z m94
-4 c9 -11 9 -16 -1 -22 -7 -4 -10 -4 -6 1 4 4 3 14 -3 22 -6 7 -9 13 -6 13 2
0 10 -6 16 -14z m451 8 c0 -8 -19 -13 -24 -6 -3 5 1 9 9 9 8 0 15 -2 15 -3z
m-485 -44 c3 -5 1 -10 -4 -10 -6 0 -11 5 -11 10 0 6 2 10 4 10 3 0 8 -4 11
-10z m422 -15 c0 -8 -4 -12 -9 -9 -5 3 -6 10 -3 15 9 13 12 11 12 -6z m-482
-4 c3 -5 2 -12 -3 -15 -5 -3 -9 1 -9 9 0 17 3 19 12 6z m102 -6 c0 -8 -4 -12
-9 -9 -5 3 -6 10 -3 15 9 13 12 11 12 -6z m93 9 c0 -8 -19 -13 -24 -6 -3 5 1
9 9 9 8 0 15 -2 15 -3z m27 -9 c0 -8 -4 -12 -9 -9 -5 3 -6 10 -3 15 9 13 12
11 12 -6z m-703 -33 c3 -5 -1 -9 -9 -9 -8 0 -12 4 -9 9 3 4 7 8 9 8 2 0 6 -4
9 -8z m360 -20 c3 -5 -1 -9 -9 -9 -8 0 -12 4 -9 9 3 4 7 8 9 8 2 0 6 -4 9 -8z
m590 -4 c-4 -5 -9 -7 -12 -4 -3 3 -12 0 -21 -7 -14 -10 -14 -10 -4 4 13 16 46
23 37 7z m-328 -20 c3 -4 -1 -5 -10 -4 -8 1 -18 5 -22 8 -3 4 1 5 10 4 8 -1
18 -5 22 -8z m79 2 c3 -5 1 -10 -4 -10 -6 0 -11 5 -11 10 0 6 2 10 4 10 3 0 8
-4 11 -10z m-160 -29 c3 -5 2 -12 -3 -15 -5 -3 -9 1 -9 9 0 17 3 19 12 6z
m160 -11 c3 -5 1 -10 -4 -10 -6 0 -11 5 -11 10 0 6 2 10 4 10 3 0 8 -4 11 -10z
m-79 -36 c1 -9 0 -13 -4 -10 -3 4 -7 14 -8 22 -1 9 0 13 4 10 3 -4 7 -14 8
-22z m154 20 c0 -8 -19 -13 -24 -6 -3 5 1 9 9 9 8 0 15 -2 15 -3z m-55 -33 c3
-5 2 -12 -3 -15 -5 -3 -9 1 -9 9 0 17 3 19 12 6z m121 -6 c-1 -8 -5 -17 -8
-21 -5 -4 -4 16 1 34 3 9 9 -1 7 -13z m-31 -5 c3 -6 -1 -7 -9 -4 -18 7 -21 14
-7 14 6 0 13 -4 16 -10z m-189 -25 c-1 -8 -5 -17 -8 -21 -5 -4 -4 16 1 34 3 9
9 -1 7 -13z m40 -20 c-1 -8 -5 -17 -8 -21 -5 -4 -4 16 1 34 3 9 9 -1 7 -13z
m104 5 c0 -5 -2 -10 -4 -10 -3 0 -8 5 -11 10 -3 6 -1 10 4 10 6 0 11 -4 11
-10z m-34 -42 c3 -4 -1 -5 -10 -4 -8 1 -18 5 -22 8 -3 4 1 5 10 4 8 -1 18 -5
22 -8z m-686 -38 c0 -5 -2 -10 -4 -10 -3 0 -8 5 -11 10 -3 6 -1 10 4 10 6 0
11 -4 11 -10z m824 2 c3 -5 -1 -9 -9 -9 -8 0 -12 4 -9 9 3 4 7 8 9 8 2 0 6 -4
9 -8z m-248 -38 c1 -9 0 -13 -4 -10 -3 4 -7 14 -8 22 -1 9 0 13 4 10 3 -4 7
-14 8 -22z m38 18 c3 -5 -1 -9 -9 -9 -8 0 -12 4 -9 9 3 4 7 8 9 8 2 0 6 -4 9
-8z m-144 -18 c0 -8 -19 -13 -24 -6 -3 5 1 9 9 9 8 0 15 -2 15 -3z m40 -20 c0
-8 -19 -13 -24 -6 -3 5 1 9 9 9 8 0 15 -2 15 -3z m-50 -24 c0 -5 -5 -10 -11
-10 -5 0 -7 5 -4 10 3 6 8 10 11 10 2 0 4 -4 4 -10z m76 -5 c-1 -8 -5 -17 -8
-21 -5 -4 -4 16 1 34 3 9 9 -1 7 -13z m138 -1 c3 -8 2 -12 -4 -9 -6 3 -10 10
-10 16 0 14 7 11 14 -7z m86 -14 c0 -5 -2 -10 -4 -10 -3 0 -8 5 -11 10 -3 6
-1 10 4 10 6 0 11 -4 11 -10z m-143 -29 c0 -11 -5 -18 -9 -15 -4 3 -5 11 -1
19 7 21 12 19 10 -4z m-202 -30 c-9 -8 -36 -10 -30 -2 2 4 11 8 20 8 8 0 13
-3 10 -6z m309 1 c3 -5 -1 -9 -9 -9 -8 0 -12 4 -9 9 3 4 7 8 9 8 2 0 6 -4 9
-8z m-124 -17 c0 -7 -30 -13 -34 -7 -3 4 4 9 15 9 10 1 19 0 19 -2z m-519 -22
c13 -16 12 -17 -3 -4 -17 13 -22 21 -14 21 2 0 10 -8 17 -17z m399 3 c0 -3 -4
-8 -10 -11 -5 -3 -10 -1 -10 4 0 6 5 11 10 11 6 0 10 -2 10 -4z m40 -6 c0 -5
-5 -10 -11 -10 -5 0 -7 5 -4 10 3 6 8 10 11 10 2 0 4 -4 4 -10z m-110 -36 c0
-8 -19 -13 -24 -6 -3 5 1 9 9 9 8 0 15 -2 15 -3z m145 -23 c-9 -8 -36 -10 -30
-2 2 4 11 8 20 8 8 0 13 -3 10 -6z m65 -1 c0 -5 -2 -10 -4 -10 -3 0 -8 5 -11
10 -3 6 -1 10 4 10 6 0 11 -4 11 -10z m40 -40 c0 -5 -5 -10 -11 -10 -5 0 -7 5
-4 10 3 6 8 10 11 10 2 0 4 -4 4 -10z m-84 -25 c-1 -8 -5 -17 -8 -21 -5 -4 -4
16 1 34 3 9 9 -1 7 -13z m57 -30 c-3 -9 -8 -14 -10 -11 -3 3 -2 9 2 15 9 16
15 13 8 -4z m-158 -24 c3 -5 2 -12 -3 -15 -5 -3 -9 1 -9 9 0 17 3 19 12 6z
m45 -5 c0 -2 -8 -10 -17 -17 -16 -13 -17 -12 -4 4 13 16 21 21 21 13z m76 -38
c3 -4 -1 -5 -10 -4 -8 1 -18 5 -22 8 -3 4 1 5 10 4 8 -1 18 -5 22 -8z m-1041
-18 c3 -5 1 -10 -4 -10 -6 0 -11 5 -11 10 0 6 2 10 4 10 3 0 8 -4 11 -10z
m805 -80 c0 -5 -2 -10 -4 -10 -3 0 -8 5 -11 10 -3 6 -1 10 4 10 6 0 11 -4 11
-10z m85 -80 c-3 -5 -12 -10 -18 -10 -7 0 -6 4 3 10 19 12 23 12 15 0z m-355
-276 c0 -8 -19 -13 -24 -6 -3 5 1 9 9 9 8 0 15 -2 15 -3z m-5253 -749 c0 -8
-4 -12 -9 -9 -5 3 -6 10 -3 15 9 13 12 11 12 -6z m-1997 -15 c0 -5 -5 -10 -11
-10 -5 0 -7 5 -4 10 3 6 8 10 11 10 2 0 4 -4 4 -10z m-1395 -40 c-3 -5 -12
-10 -18 -10 -7 0 -6 4 3 10 19 12 23 12 15 0z m2292 -35 c0 -8 -4 -12 -9 -9
-5 3 -6 10 -3 15 9 13 12 11 12 -6z m876 0 c-3 -9 -8 -14 -10 -11 -3 3 -2 9 2
15 9 16 15 13 8 -4z m497 -1 c0 -8 -19 -13 -24 -6 -3 5 1 9 9 9 8 0 15 -2 15
-3z m85 -4 c3 -5 1 -10 -4 -10 -6 0 -11 5 -11 10 0 6 2 10 4 10 3 0 8 -4 11
-10z m-1471 -78 c3 -5 -1 -9 -9 -9 -8 0 -15 4 -15 9 0 4 4 8 9 8 6 0 12 -4 15
-8z m111 -10 c-3 -3 -11 0 -18 7 -9 10 -8 11 6 5 10 -3 15 -9 12 -12z m-910
-12 c-3 -5 -12 -10 -18 -10 -7 0 -6 4 3 10 19 12 23 12 15 0z m240 -20 c-3 -5
-12 -10 -18 -10 -7 0 -6 4 3 10 19 12 23 12 15 0z m-45 -36 c0 -8 -19 -13 -24
-6 -3 5 1 9 9 9 8 0 15 -2 15 -3z m2075 -52 c-3 -3 -11 0 -18 7 -9 10 -8 11 6
5 10 -3 15 -9 12 -12z m-3000 -32 c3 -5 1 -10 -4 -10 -6 0 -11 5 -11 10 0 6 2
10 4 10 3 0 8 -4 11 -10z m-718 -25 c0 -8 -4 -12 -9 -9 -5 3 -6 10 -3 15 9 13
12 11 12 -6z m120 -10 c0 -8 -4 -12 -9 -9 -5 3 -6 10 -3 15 9 13 12 11 12 -6z
m480 -80 c0 -8 -4 -12 -9 -9 -5 3 -6 10 -3 15 9 13 12 11 12 -6z m-581 -61 c1
-9 0 -13 -4 -10 -3 4 -7 14 -8 22 -1 9 0 13 4 10 3 -4 7 -14 8 -22z m4019 17
c3 -5 2 -12 -3 -15 -5 -3 -9 1 -9 9 0 17 3 19 12 6z m-3819 -57 c1 -9 0 -13
-4 -10 -3 4 -7 14 -8 22 -1 9 0 13 4 10 3 -4 7 -14 8 -22z m79 16 c3 -5 1 -10
-4 -10 -6 0 -11 5 -11 10 0 6 2 10 4 10 3 0 8 -4 11 -10z m96 -17 c-12 -20
-14 -14 -5 12 4 9 9 14 11 11 3 -2 0 -13 -6 -23z m846 12 c0 -8 -4 -12 -9 -9
-5 3 -6 10 -3 15 9 13 12 11 12 -6z m1358 5 c3 -5 1 -10 -4 -10 -6 0 -11 5
-11 10 0 6 2 10 4 10 3 0 8 -4 11 -10z m370 0 c-3 -5 -12 -10 -18 -10 -7 0 -6
4 3 10 19 12 23 12 15 0z m-2956 -36 c-6 -8 -17 -14 -23 -14 -6 0 -3 5 7 11 9
6 14 15 11 21 -4 7 -2 8 5 4 9 -6 9 -11 0 -22z m51 20 c0 -8 -19 -13 -24 -6
-3 5 1 9 9 9 8 0 15 -2 15 -3z m55 -3 c-9 -8 -36 -10 -30 -2 2 4 11 8 20 8 8
0 13 -3 10 -6z m405 5 c0 -3 -4 -8 -10 -11 -5 -3 -10 -1 -10 4 0 6 5 11 10 11
6 0 10 -2 10 -4z m-360 -26 c0 -5 -5 -10 -11 -10 -5 0 -7 5 -4 10 3 6 8 10 11
10 2 0 4 -4 4 -10z m991 -7 c13 -16 12 -17 -3 -4 -17 13 -22 21 -14 21 2 0 10
-8 17 -17z m2009 13 c0 -3 -4 -8 -10 -11 -5 -3 -10 -1 -10 4 0 6 5 11 10 11 6
0 10 -2 10 -4z m965 -6 c3 -6 -1 -7 -9 -4 -18 7 -21 14 -7 14 6 0 13 -4 16
-10z m-3791 -18 c2 -4 -5 -9 -17 -9 -17 -2 -19 0 -7 7 18 12 18 12 24 2z m56
2 c0 -8 -19 -13 -24 -6 -3 5 1 9 9 9 8 0 15 -2 15 -3z m50 -4 c0 -5 -5 -10
-11 -10 -5 0 -7 5 -4 10 3 6 8 10 11 10 2 0 4 -4 4 -10z m875 1 c3 -5 2 -12
-3 -15 -5 -3 -9 1 -9 9 0 17 3 19 12 6z m2082 -16 c0 -8 -4 -12 -9 -9 -5 3 -6
10 -3 15 9 13 12 11 12 -6z m-2781 -10 c-1 -8 -5 -17 -8 -21 -5 -4 -4 16 1 34
3 9 9 -1 7 -13z m84 11 c0 -3 -4 -8 -10 -11 -5 -3 -10 -1 -10 4 0 6 5 11 10
11 6 0 10 -2 10 -4z m770 -2 c0 -8 -19 -13 -24 -6 -3 5 1 9 9 9 8 0 15 -2 15
-3z m1195 -4 c-3 -5 -12 -10 -18 -10 -7 0 -6 4 3 10 19 12 23 12 15 0z m85 4
c0 -8 -19 -13 -24 -6 -3 5 1 9 9 9 8 0 15 -2 15 -3z m-2650 -18 c0 -3 -4 -8
-10 -11 -5 -3 -10 -1 -10 4 0 6 5 11 10 11 6 0 10 -2 10 -4z m40 -6 c0 -5 -2
-10 -4 -10 -3 0 -8 5 -11 10 -3 6 -1 10 4 10 6 0 11 -4 11 -10z m80 0 c0 -5
-5 -10 -11 -10 -5 0 -7 5 -4 10 3 6 8 10 11 10 2 0 4 -4 4 -10z m100 -5 c0 -2
-9 -3 -19 -2 -11 0 -18 5 -15 9 4 6 34 0 34 -7z m195 6 c-9 -8 -36 -10 -30 -2
2 4 11 8 20 8 8 0 13 -3 10 -6z m139 1 c3 -5 -1 -9 -9 -9 -8 0 -12 4 -9 9 3 4
7 8 9 8 2 0 6 -4 9 -8z m282 -4 c3 -4 -1 -5 -10 -4 -8 1 -18 5 -22 8 -3 4 1 5
10 4 8 -1 18 -5 22 -8z m-571 -17 c-9 -8 -36 -10 -30 -2 2 4 11 8 20 8 8 0 13
-3 10 -6z m192 -6 c0 -8 -4 -12 -9 -9 -5 3 -6 10 -3 15 9 13 12 11 12 -6z
m2203 9 c0 -8 -19 -13 -24 -6 -3 5 1 9 9 9 8 0 15 -2 15 -3z m37 -9 c0 -8 -4
-12 -9 -9 -5 3 -6 10 -3 15 9 13 12 11 12 -6z m478 5 c3 -5 1 -10 -4 -10 -6 0
-11 5 -11 10 0 6 2 10 4 10 3 0 8 -4 11 -10z m-2860 -9 c3 -5 2 -12 -3 -15 -5
-3 -9 1 -9 9 0 17 3 19 12 6z m1040 0 c3 -5 2 -12 -3 -15 -5 -3 -9 1 -9 9 0
17 3 19 12 6z m-1001 -9 c3 -5 -1 -9 -9 -9 -8 0 -12 4 -9 9 3 4 7 8 9 8 2 0 6
-4 9 -8z m66 3 c0 -7 -30 -13 -34 -7 -3 4 4 9 15 9 10 1 19 0 19 -2z m235 -4
c-9 -8 -36 -10 -30 -2 2 4 11 8 20 8 8 0 13 -3 10 -6z m61 -17 c1 -9 0 -13 -4
-10 -3 4 -7 14 -8 22 -1 9 0 13 4 10 3 -4 7 -14 8 -22z m40 11 c-1 -8 -5 -17
-8 -21 -5 -4 -4 16 1 34 3 9 9 -1 7 -13z m80 3 c3 -4 -1 -5 -10 -4 -8 1 -18 5
-22 8 -3 4 1 5 10 4 8 -1 18 -5 22 -8z m240 -14 c1 -9 0 -13 -4 -10 -3 4 -7
14 -8 22 -1 9 0 13 4 10 3 -4 7 -14 8 -22z m78 18 c2 -4 -5 -9 -17 -9 -17 -2
-19 0 -7 7 18 12 18 12 24 2z m62 -4 c3 -4 -1 -5 -10 -4 -8 1 -18 5 -22 8 -3
4 1 5 10 4 8 -1 18 -5 22 -8z m60 -3 c-1 -8 -5 -17 -8 -21 -5 -4 -4 16 1 34 3
9 9 -1 7 -13z m179 6 c-9 -8 -36 -10 -30 -2 2 4 11 8 20 8 8 0 13 -3 10 -6z
m58 -6 c4 -8 3 -16 -1 -19 -4 -3 -9 4 -9 15 -2 23 3 25 10 4z m3027 1 c0 -2
-8 -10 -17 -17 -16 -13 -17 -12 -4 4 13 16 21 21 21 13z m-1165 -24 c-3 -3
-11 0 -18 7 -9 10 -8 11 6 5 10 -3 15 -9 12 -12z m-2975 -12 c0 -5 -5 -10 -11
-10 -5 0 -7 5 -4 10 3 6 8 10 11 10 2 0 4 -4 4 -10z m155 0 c3 -5 1 -10 -4
-10 -6 0 -11 5 -11 10 0 6 2 10 4 10 3 0 8 -4 11 -10z m45 4 c0 -8 -19 -13
-24 -6 -3 5 1 9 9 9 8 0 15 -2 15 -3z m313 -19 c-7 -21 -12 -19 -10 4 0 11 5
18 9 15 4 -3 5 -11 1 -19z m91 17 c3 -5 -1 -9 -9 -9 -8 0 -12 4 -9 9 3 4 7 8
9 8 2 0 6 -4 9 -8z m353 -7 c0 -8 -4 -12 -9 -9 -5 3 -6 10 -3 15 9 13 12 11
12 -6z m1498 6 c-9 -8 -36 -10 -30 -2 2 4 11 8 20 8 8 0 13 -3 10 -6z m125 5
c0 -3 -4 -8 -10 -11 -5 -3 -10 -1 -10 4 0 6 5 11 10 11 6 0 10 -2 10 -4z m40
-6 c0 -5 -2 -10 -4 -10 -3 0 -8 5 -11 10 -3 6 -1 10 4 10 6 0 11 -4 11 -10z
m515 -9 c3 -5 2 -12 -3 -15 -5 -3 -9 1 -9 9 0 17 3 19 12 6z m-3511 -9 c2 -4
-4 -8 -14 -8 -10 0 -16 4 -14 8 3 4 9 8 14 8 5 0 11 -4 14 -8z m427 -9 c13
-16 12 -17 -3 -4 -10 7 -18 15 -18 17 0 8 8 3 21 -13z m969 11 c0 -8 -19 -13
-24 -6 -3 5 1 9 9 9 8 0 15 -2 15 -3z m44 -2 c3 -5 -1 -9 -9 -9 -8 0 -12 4 -9
9 3 4 7 8 9 8 2 0 6 -4 9 -8z m1860 0 c3 -5 -1 -9 -9 -9 -8 0 -12 4 -9 9 3 4
7 8 9 8 2 0 6 -4 9 -8z m-2249 -22 c3 -5 1 -10 -4 -10 -6 0 -11 5 -11 10 0 6
2 10 4 10 3 0 8 -4 11 -10z m45 0 c0 -5 -5 -10 -11 -10 -5 0 -7 5 -4 10 3 6 8
10 11 10 2 0 4 -4 4 -10z m40 0 c0 -5 -2 -10 -4 -10 -3 0 -8 5 -11 10 -3 6 -1
10 4 10 6 0 11 -4 11 -10z m1820 0 c0 -5 -5 -10 -11 -10 -5 0 -7 5 -4 10 3 6
8 10 11 10 2 0 4 -4 4 -10z m-2799 -17 c13 -16 12 -17 -3 -4 -17 13 -22 21
-14 21 2 0 10 -8 17 -17z m120 0 c13 -16 12 -17 -3 -4 -17 13 -22 21 -14 21 2
0 10 -8 17 -17z m637 -8 c-3 -3 -9 2 -12 12 -6 14 -5 15 5 6 7 -7 10 -15 7
-18z m-934 7 c3 -5 -1 -9 -9 -9 -8 0 -12 4 -9 9 3 4 7 8 9 8 2 0 6 -4 9 -8z
m381 -2 c3 -6 -1 -7 -9 -4 -18 7 -21 14 -7 14 6 0 13 -4 16 -10z m155 4 c0 -8
-19 -13 -24 -6 -3 5 1 9 9 9 8 0 15 -2 15 -3z m445 -4 c-3 -5 -12 -10 -18 -10
-7 0 -6 4 3 10 19 12 23 12 15 0z m2409 2 c3 -5 -1 -9 -9 -9 -8 0 -12 4 -9 9
3 4 7 8 9 8 2 0 6 -4 9 -8z m-237 -17 c0 -8 -4 -12 -9 -9 -5 3 -6 10 -3 15 9
13 12 11 12 -6z m-1797 -5 c0 -5 -2 -10 -4 -10 -3 0 -8 5 -11 10 -3 6 -1 10 4
10 6 0 11 -4 11 -10z m35 0 c3 -5 1 -10 -4 -10 -6 0 -11 5 -11 10 0 6 2 10 4
10 3 0 8 -4 11 -10z m1660 1 c-9 -8 -36 -10 -30 -2 2 4 11 8 20 8 8 0 13 -3
10 -6z m229 1 c3 -5 -1 -9 -9 -9 -8 0 -12 4 -9 9 3 4 7 8 9 8 2 0 6 -4 9 -8z
m-2747 -17 c0 -8 -4 -12 -9 -9 -5 3 -6 10 -3 15 9 13 12 11 12 -6z m404 -2
c13 -16 12 -17 -3 -4 -10 7 -18 15 -18 17 0 8 8 3 21 -13z m-370 -10 c13 -16
12 -17 -3 -4 -10 7 -18 15 -18 17 0 8 8 3 21 -13z m2520 -6 c-10 -9 -11 -8 -5
6 3 10 9 15 12 12 3 -3 0 -11 -7 -18z m106 -2 c0 -8 -4 -12 -9 -9 -5 3 -6 10
-3 15 9 13 12 11 12 -6z m118 6 c3 -5 2 -12 -3 -15 -5 -3 -9 1 -9 9 0 17 3 19
12 6z m-3098 -18 c0 -9 -4 -10 -14 -2 -7 6 -13 12 -13 14 0 1 6 2 13 2 8 0 14
-6 14 -14z m1143 7 c0 -5 -2 -10 -4 -10 -3 0 -8 5 -11 10 -3 6 -1 10 4 10 6 0
11 -4 11 -10z m40 6 c0 -3 -4 -8 -10 -11 -5 -3 -10 -1 -10 4 0 6 5 11 10 11 6
0 10 -2 10 -4z m1756 -22 c1 -9 0 -13 -4 -10 -3 4 -7 14 -8 22 -1 9 0 13 4 10
3 -4 7 -14 8 -22z m-3002 -3 c-9 -9 -34 -9 -34 -1 0 5 9 8 20 7 10 -1 17 -3
14 -6z m756 5 c0 -2 -8 -10 -17 -17 -16 -13 -17 -12 -4 4 13 16 21 21 21 13z
m2565 -6 c3 -5 1 -10 -4 -10 -6 0 -11 5 -11 10 0 6 2 10 4 10 3 0 8 -4 11 -10z
m1019 2 c3 -5 -1 -9 -9 -9 -8 0 -12 4 -9 9 3 4 7 8 9 8 2 0 6 -4 9 -8z m-4280
-21 c3 -5 -2 -15 -12 -22 -15 -12 -16 -12 -5 2 7 9 10 19 6 22 -3 4 -4 7 0 7
3 0 8 -4 11 -9z m3082 -3 c3 -4 -1 -5 -10 -4 -8 1 -18 5 -22 8 -3 4 1 5 10 4
8 -1 18 -5 22 -8z m124 -3 c0 -2 -9 -3 -19 -2 -11 0 -18 5 -15 9 4 6 34 0 34
-7z m-3264 -15 c0 -12 -4 -16 -9 -11 -5 5 -6 14 -3 20 10 15 12 14 12 -9z
m3504 16 c0 -2 -8 -10 -17 -17 -16 -13 -17 -12 -4 4 13 16 21 21 21 13z
m-3540 -16 c0 -5 -4 -10 -10 -10 -5 0 -10 5 -10 10 0 6 5 10 10 10 6 0 10 -4
10 -10z m1091 -7 c13 -16 12 -17 -3 -4 -17 13 -22 21 -14 21 2 0 10 -8 17 -17z
m84 8 c3 -5 2 -12 -3 -15 -5 -3 -9 1 -9 9 0 17 3 19 12 6z m2436 -8 c13 -16
12 -17 -3 -4 -17 13 -22 21 -14 21 2 0 10 -8 17 -17z m-3351 -9 c0 -8 -19 -13
-24 -6 -3 5 1 9 9 9 8 0 15 -2 15 -3z m117 -9 c0 -8 -4 -12 -9 -9 -5 3 -6 10
-3 15 9 13 12 11 12 -6z m2858 6 c-9 -8 -36 -10 -30 -2 2 4 11 8 20 8 8 0 13
-3 10 -6z m-3161 -31 c-6 -6 -10 -3 -10 10 0 13 4 16 10 10 7 -7 7 -13 0 -20z
m143 15 c0 -8 -4 -12 -9 -9 -5 3 -6 10 -3 15 9 13 12 11 12 -6z m-47 0 c0 -2
-6 -8 -13 -14 -10 -8 -14 -7 -14 2 0 8 6 14 14 14 7 0 13 -1 13 -2z m505 -5
c3 -5 1 -10 -4 -10 -6 0 -11 5 -11 10 0 6 2 10 4 10 3 0 8 -4 11 -10z m116
-13 c-10 -9 -11 -8 -5 6 3 10 9 15 12 12 3 -3 0 -11 -7 -18z m2649 19 c0 -3
-4 -8 -10 -11 -5 -3 -10 -1 -10 4 0 6 5 11 10 11 6 0 10 -2 10 -4z m1024 -4
c3 -5 -1 -9 -9 -9 -8 0 -12 4 -9 9 3 4 7 8 9 8 2 0 6 -4 9 -8z m-4211 -17 c-3
-9 -8 -14 -10 -11 -3 3 -2 9 2 15 9 16 15 13 8 -4z m764 -10 c0 -8 -4 -12 -9
-9 -5 3 -6 10 -3 15 9 13 12 11 12 -6z m2383 9 c0 -8 -19 -13 -24 -6 -3 5 1 9
9 9 8 0 15 -2 15 -3z m214 -10 c3 -8 2 -12 -4 -9 -6 3 -10 10 -10 16 0 14 7
11 14 -7z m-3501 -9 c-3 -9 -8 -14 -10 -11 -3 3 -2 9 2 15 9 16 15 13 8 -4z
m44 -10 c0 -8 -4 -12 -9 -9 -5 3 -6 10 -3 15 9 13 12 11 12 -6z m333 9 c0 -8
-19 -13 -24 -6 -3 5 1 9 9 9 8 0 15 -2 15 -3z m67 -11 c0 -9 -4 -10 -14 -2 -7
6 -13 12 -13 14 0 1 6 2 13 2 8 0 14 -6 14 -14z m55 6 c2 -2 1 -3 -1 -2 -2 2
-9 -2 -16 -7 -8 -7 -12 -5 -12 4 0 12 22 16 29 5z m208 5 c0 -8 -19 -13 -24
-6 -3 5 1 9 9 9 8 0 15 -2 15 -3z m34 -2 c3 -5 -1 -9 -9 -9 -8 0 -12 4 -9 9 3
4 7 8 9 8 2 0 6 -4 9 -8z m201 -1 c3 -5 2 -12 -3 -15 -5 -3 -9 1 -9 9 0 17 3
19 12 6z m-671 -19 c2 -4 -4 -8 -14 -8 -10 0 -16 4 -14 8 3 4 9 8 14 8 5 0 11
-4 14 -8z m73 -15 c1 -11 1 -18 0 -16 -2 2 -8 11 -15 20 -9 12 -9 16 1 16 7 0
14 -9 14 -20z m567 15 c3 -5 -1 -9 -9 -9 -8 0 -15 4 -15 9 0 4 4 8 9 8 6 0 12
-4 15 -8z m2552 -4 c3 -4 -1 -5 -10 -4 -8 1 -18 5 -22 8 -3 4 1 5 10 4 8 -1
18 -5 22 -8z m-3370 -20 c12 -14 13 -18 3 -10 -9 6 -18 10 -21 7 -2 -3 -5 2
-5 10 0 19 0 19 23 -7z m656 7 c10 2 20 0 23 -4 8 -14 -44 -6 -57 9 -11 12
-10 12 2 3 8 -6 23 -9 32 -8z m-545 -12 c0 -10 -4 -10 -16 -1 -9 7 -18 13 -20
15 -2 1 5 1 16 0 11 0 20 -7 20 -14z m218 7 c3 -5 1 -10 -4 -10 -6 0 -11 5
-11 10 0 6 2 10 4 10 3 0 8 -4 11 -10z m85 -1 c0 -4 -9 -7 -19 -6 -11 0 -18 4
-16 7 6 9 35 8 35 -1z m35 -7 c-3 -3 -11 0 -18 7 -9 10 -8 11 6 5 10 -3 15 -9
12 -12z m296 1 c13 -16 12 -17 -3 -4 -17 13 -22 21 -14 21 2 0 10 -8 17 -17z
m129 11 c0 -8 -19 -13 -24 -6 -3 5 1 9 9 9 8 0 15 -2 15 -3z m2560 -4 c0 -5
-2 -10 -4 -10 -3 0 -8 5 -11 10 -3 6 -1 10 4 10 6 0 11 -4 11 -10z m257 -5 c0
-8 -4 -12 -9 -9 -5 3 -6 10 -3 15 9 13 12 11 12 -6z m-159 -20 c-3 -3 -9 2
-12 12 -6 14 -5 15 5 6 7 -7 10 -15 7 -18z m77 16 c3 -5 2 -12 -3 -15 -5 -3
-9 1 -9 9 0 17 3 19 12 6z m-3555 -15 c-7 -7 -13 -7 -20 0 -6 6 -3 10 10 10
13 0 16 -4 10 -10z m481 1 c-6 -8 -8 -17 -4 -20 3 -4 1 -7 -5 -7 -15 0 -15 13
0 28 16 16 23 15 9 -1z m2954 4 c-9 -8 -36 -10 -30 -2 2 4 11 8 20 8 8 0 13
-3 10 -6z m-3259 -16 c-1 -8 -5 -17 -8 -21 -5 -4 -4 16 1 34 3 9 9 -1 7 -13z
m120 0 c-1 -8 -5 -17 -8 -21 -5 -4 -4 16 1 34 3 9 9 -1 7 -13z m318 -15 c-6
-6 -10 -3 -10 10 0 13 4 16 10 10 7 -7 7 -13 0 -20z m-563 -3 c-10 -9 -11 -8
-5 6 3 10 9 15 12 12 3 -3 0 -11 -7 -18z m69 9 c0 -2 -8 -10 -17 -17 -16 -13
-17 -12 -4 4 13 16 21 21 21 13z m120 0 c0 -2 -8 -10 -17 -17 -16 -13 -17 -12
-4 4 13 16 21 21 21 13z m284 -14 c2 -4 -4 -8 -14 -8 -10 0 -16 4 -14 8 3 4 9
8 14 8 5 0 11 -4 14 -8z m107 -15 c-10 -9 -11 -8 -5 6 3 10 9 15 12 12 3 -3 0
-11 -7 -18z m-494 0 c0 -8 -6 -14 -14 -14 -9 0 -10 4 -2 14 6 7 12 13 14 13 1
0 2 -6 2 -13z m63 10 c0 -2 -8 -11 -18 -20 -15 -14 -19 -15 -19 -2 0 8 4 12 8
9 4 -2 10 0 14 6 6 10 15 14 15 7z m50 -12 c-7 -8 -17 -15 -23 -15 -6 0 -2 7
9 15 25 19 30 19 14 0z m83 0 c-3 -9 -8 -14 -10 -11 -3 3 -2 9 2 15 9 16 15
13 8 -4z m-52 -8 c-6 -8 -9 -16 -6 -19 3 -2 -2 -5 -10 -5 -13 0 -13 3 2 19 19
21 31 25 14 5z m80 0 c-6 -8 -9 -16 -6 -19 3 -2 -2 -5 -10 -5 -13 0 -13 3 2
19 19 21 31 25 14 5z m39 4 c0 -5 -8 -15 -17 -22 -16 -12 -17 -12 -6 2 7 9 10
19 6 22 -3 4 -1 7 5 7 7 0 12 -4 12 -9z m3995 -9 c-3 -3 -11 0 -18 7 -9 10 -8
11 6 5 10 -3 15 -9 12 -12z m-3875 4 c0 -2 -8 -10 -17 -17 -16 -13 -17 -12 -4
4 13 16 21 21 21 13z m-206 -14 c3 -5 -1 -9 -9 -9 -8 0 -12 4 -9 9 3 4 7 8 9
8 2 0 6 -4 9 -8z"/>
</g>
</svg>
